SplineFontDB: 3.0
FontName: OpenSourceryRegular
FullName: Open Sourcery
FamilyName: Open Sourcery
Weight: Regular
Copyright: 
Version: 1.0
ItalicAngle: 0
UnderlinePosition: -202
UnderlineWidth: 98
Ascent: 1638
Descent: 410
InvalidEm: 0
sfntRevision: 0x00010000
LayerCount: 2
Layer: 0 0 "Back" 1
Layer: 1 0 "Fore" 0
XUID: [1021 894 -1205497008 10886]
StyleMap: 0x0040
FSType: 0
OS2Version: 4
OS2_WeightWidthSlopeOnly: 0
OS2_UseTypoMetrics: 0
CreationTime: 1539541620
ModificationTime: 1547054317
PfmFamily: 81
TTFWeight: 400
TTFWidth: 5
LineGap: 0
VLineGap: 0
Panose: 0 0 0 0 0 0 0 0 0 0
OS2TypoAscent: 1747
OS2TypoAOffset: 0
OS2TypoDescent: -666
OS2TypoDOffset: 0
OS2TypoLinegap: 0
OS2WinAscent: 1980
OS2WinAOffset: 0
OS2WinDescent: 535
OS2WinDOffset: 0
HheadAscent: 1747
HheadAOffset: 0
HheadDescent: -666
HheadDOffset: 0
OS2SubXSize: 1331
OS2SubYSize: 1432
OS2SubXOff: 0
OS2SubYOff: 287
OS2SupXSize: 1331
OS2SupYSize: 1432
OS2SupXOff: 0
OS2SupYOff: 981
OS2StrikeYSize: 100
OS2StrikeYPos: 528
OS2CapHeight: 697
OS2XHeight: 506
OS2Vendor: 'XXXX'
OS2CodePages: 00000003.00000000
OS2UnicodeRanges: 80000003.10000008.00000000.00000000
Lookup: 1 0 0 "'aalt' Access All Alternates in Latin lookup 0" { "'aalt' Access All Alternates in Latin lookup 0 subtable"  } ['aalt' ('DFLT' <'dflt' > 'latn' <'dflt' > ) ]
MarkAttachClasses: 1
DEI: 91125

StartChar: .notdef
Encoding: 65536 -1 0
Width: 1077
Flags: W
HStem: 0 43<162 919> 1392 41<160 919>
VStem: 103 43<101 1332> 935 42<97 1336>
LayerCount: 2
Fore
SplineSet
103 1433 m 1
 977 1433 l 1
 977 0 l 1
 103 0 l 1
 103 1433 l 1
160 1392 m 1
 538 759 l 1
 919 1392 l 1
 160 1392 l 1
514 716 m 1
 146 1332 l 1
 146 101 l 1
 514 716 l 1
540 674 m 1
 162 43 l 1
 919 43 l 1
 540 674 l 1
565 716 m 1
 935 97 l 1
 935 1336 l 1
 565 716 l 1
EndSplineSet
Validated: 1
EndChar

StartChar: exclam
Encoding: 33 33 5
Width: 529
Flags: W
HStem: 0 291<162.875 366.625>
VStem: 120 289<43.375 248.125> 184 160<865.254 1485>
LayerCount: 2
Fore
SplineSet
294 403 m 1xa0
 235 403 l 1
 184 1046 l 1
 184 1485 l 1
 344 1485 l 1
 344 1046 l 1
 294 403 l 1xa0
265 291 m 0
 344 291 409 225 409 146 c 0
 409 67 344 0 265 0 c 0
 186 0 120 67 120 146 c 0xc0
 120 225 186 291 265 291 c 0
EndSplineSet
Validated: 1
EndChar

StartChar: quotedbl
Encoding: 34 34 6
Width: 956
Flags: W
HStem: 1281 502<261 318 640 698>
VStem: 144 291<1537.86 1740.62> 522 292<1537.86 1740.62>
LayerCount: 2
Fore
SplineSet
289 1783 m 0
 368 1783 435 1718 435 1639 c 0
 435 1582 399 1532 350 1508 c 1
 318 1281 l 1
 261 1281 l 1
 227 1506 l 1
 178 1530 144 1582 144 1639 c 0
 144 1718 210 1783 289 1783 c 0
668 1783 m 0
 747 1783 814 1718 814 1639 c 0
 814 1582 778 1532 729 1508 c 1
 698 1281 l 1
 640 1281 l 1
 609 1506 l 1
 560 1530 522 1582 522 1639 c 0
 522 1718 589 1783 668 1783 c 0
EndSplineSet
Validated: 1
EndChar

StartChar: numbersign
Encoding: 35 35 7
Width: 1282
Flags: W
HStem: 415 166<136 243 480 615 852 973> 880 166<308 439 676 811 1046 1139>
LayerCount: 2
Fore
SplineSet
1139 880 m 1
 977 880 l 1
 852 581 l 1
 973 581 l 1
 973 415 l 1
 781 415 l 1
 678 176 l 1
 512 176 l 1
 615 415 l 1
 409 415 l 1
 308 176 l 1
 140 176 l 1
 243 415 l 1
 136 415 l 1
 136 581 l 1
 314 581 l 1
 439 880 l 1
 308 880 l 1
 308 1046 l 1
 508 1046 l 1
 611 1289 l 1
 777 1289 l 1
 676 1046 l 1
 880 1046 l 1
 982 1289 l 1
 1149 1289 l 1
 1046 1046 l 1
 1139 1046 l 1
 1139 880 l 1
684 581 m 1
 811 880 l 1
 605 880 l 1
 480 581 l 1
 684 581 l 1
EndSplineSet
Validated: 1
EndChar

StartChar: dollar
Encoding: 36 36 8
Width: 1068
Flags: W
HStem: 109 158<371.837 468 634 757.927> 575 139<634 758.75> 589 144<365.739 468> 1018 140<353.072 468 634 737.139>
VStem: 100 180<354.297 530> 150.704 162.989<781.07 977.169> 468 166<-32 116.144 267 575 733 1018 1160.26 1291> 784 159<779 971.069> 808 160<314.56 526.86>
LayerCount: 2
Fore
SplineSet
968 389 m 0xd280
 968 243 822 133 634 109 c 1
 634 -32 l 1
 468 -32 l 1
 468 109 l 1
 316 129 175 206 120 360 c 0
 104 405 100 508 100 530 c 1
 280 530 l 1xda80
 280 485 286 423 290 411 c 0
 318 336 389 289 468 267 c 1
 468 589 l 1
 351 607 236 652 177 753 c 0
 158.708895475 785.258857072 150.703575724 820.835709233 150.703575724 856.935147744 c 0
 150.703575724 929.384053885 182.947022041 1003.93780848 229 1058 c 0
 284 1123 373 1158 468 1166 c 1
 468 1291 l 1
 634 1291 l 1
 634 1158 l 1
 796.89603714 1126.21540739 943.020174311 1025.3700502 943.020174311 884.862164153 c 0
 943.020174311 883.909928049 943.013462962 882.955870281 943 882 c 2
 943 779 l 1
 784 779 l 1
 784 882 l 2xb7
 784 924 763 960 721 986 c 0
 699 1000 670 1010 634 1018 c 1
 634 714 l 1
 806 694 968 654 968 389 c 0xd280
314 892 m 0
 313.793977237 888.394601646 313.692888883 884.868198858 313.692888883 881.41896982 c 0
 313.692888883 784.416317177 393.643958793 748.450605965 468 733 c 1xb6
 468 1024 l 1
 389 1010 318 969 314 892 c 0
634 257 m 1
 687 267 808 302 808 401 c 0
 808 514 766 559 634 575 c 1xd280
 634 257 l 1
EndSplineSet
Validated: 524289
EndChar

StartChar: percent
Encoding: 37 37 9
Width: 1246
Flags: W
HStem: -32 131<723.624 952.245> 476 131<726.08 959.784> 816 131<290.624 519.106> 1324 131<293.08 526.628>
VStem: 100 131<1008.05 1260.51> 533 131<160.055 412.508> 583 128<1012.61 1265.03> 1016 130<164.613 417.031>
LayerCount: 2
Fore
SplineSet
1118 1066 m 1xf9
 1118 878 l 1
 120 352 l 1
 120 540 l 1
 1118 1066 l 1xf9
840 607 m 0
 1014 607 1146 471 1146 289 c 0
 1146 113 1008 -32 840 -32 c 0
 666 -32 533 107 533 289 c 0xfd
 533 465 672 607 840 607 c 0
840 99 m 0
 939 99 1016 184 1016 289 c 0
 1016 402 945 476 840 476 c 0
 741 476 664 394 664 289 c 0
 664 176 735 99 840 99 c 0
407 816 m 0
 233 816 100 955 100 1137 c 0
 100 1313 239 1455 407 1455 c 0
 581 1455 711 1319 711 1137 c 0xfb
 711 961 575 816 407 816 c 0
407 1324 m 0
 308 1324 231 1242 231 1137 c 0
 231 1024 302 947 407 947 c 0
 506 947 583 1032 583 1137 c 0
 583 1250 512 1324 407 1324 c 0
EndSplineSet
Validated: 1
EndChar

StartChar: ampersand
Encoding: 38 38 10
Width: 1341
Flags: W
HStem: -33.2359 171.98<423.674 769.033> 1351.16 153.906<603.873 806.042>
VStem: 99.6692 162.192<306.777 626.814> 403.241 155.079<986.35 1304.36> 1071.88 169.117<299.667 571.412>
LayerCount: 2
Fore
SplineSet
1142.72265625 692 m 1
 1198.15435886 616.612884445 1241.00039019 514.677868513 1241.00039019 412.531058057 c 0
 1241.00039019 284.334027265 1173.51388893 155.803400314 978.72265625 79 c 1
 976.72265625 81 l 1
 1047.72265625 -83 l 1
 879.72265625 -83 l 1
 832.72265625 26 l 1
 734.170256932 -14.9288652907 646.276197557 -33.2359478441 568.396201628 -33.2359478441 c 0
 357.048551073 -33.2359478441 219.449426937 101.5864815 142.72265625 285 c 0
 114.456089887 352.570553878 99.6692307307 422.315254079 99.6692307307 490.741858829 c 0
 99.6692307307 676.495171317 208.637257824 852.535111999 452.72265625 949 c 1
 419.683162916 1039.43154037 403.241276986 1120.23563421 403.241276986 1190.60775841 c 0
 403.241276986 1324.11910742 462.422873679 1420.08119822 579.72265625 1473 c 0
 626.942346114 1494.30276249 672.526088906 1505.06384906 716.389302242 1505.06384906 c 0
 855.780537211 1505.06384906 977.796478421 1396.38971985 1079.72265625 1172 c 1
 941.72265625 1107 l 1
 858.309879894 1283.95981526 781.626714227 1351.15751443 708.252200279 1351.15751443 c 0
 687.503567445 1351.15751443 667.019503974 1345.78419203 646.72265625 1336 c 0
 587.403049177 1307.40470114 558.320126429 1254.27866879 558.320126429 1179.24070058 c 0
 558.320126429 1123.07184247 574.615604534 1054.62548825 606.72265625 975 c 2
 915.72265625 231 l 1
 1031.94145461 268.132147195 1071.88344331 345.960762966 1071.88344331 423.889534981 c 0
 1071.88344331 507.559698078 1025.83920956 591.345319061 978.72265625 625 c 1
 1142.72265625 692 l 1
288.72265625 344 m 0
 337.163311826 225.428843069 437.876124064 138.743701702 584.058442865 138.743701702 c 0
 640.066107732 138.743701702 702.748376225 151.468470512 771.72265625 180 c 1
 516.72265625 795 l 1
 337.125629199 718.874511168 261.860980274 598.503354125 261.860980274 474.662093446 c 0
 261.860980274 430.942527316 271.241178112 386.790483801 288.72265625 344 c 0
EndSplineSet
Validated: 524289
EndChar

StartChar: quotesingle
Encoding: 39 39 11
AltUni2: 002019.ffffffff.0 002018.ffffffff.0
Width: 577
Flags: W
HStem: 1281 502<261 318>
VStem: 144 291<1537.86 1740.62>
LayerCount: 2
Fore
SplineSet
435 1639 m 0
 435 1582 399 1532 350 1508 c 1
 318 1281 l 1
 261 1281 l 1
 227 1506 l 1
 178 1530 144 1582 144 1639 c 0
 144 1718 210 1783 289 1783 c 0
 368 1783 435 1718 435 1639 c 0
EndSplineSet
Validated: 1
EndChar

StartChar: parenleft
Encoding: 40 40 12
Width: 1095
Flags: W
HStem: -409 21G<709.887 975>
VStem: 120.135 164.059<448.642 1003.77>
LayerCount: 2
Fore
SplineSet
285 761 m 0
 284.460951169 747.793303635 284.193642503 734.617099566 284.193642503 721.477484462 c 0
 284.193642503 295.857087178 564.667647534 -91.3722849644 975 -233 c 1
 975 -409 l 1
 444.774782347 -240.02712844 120.134821282 226.950060007 120.134821282 722.684772138 c 0
 120.134821282 737.43342408 120.422169145 752.207530106 121 767 c 0
 139 1245 497 1724 975 1833 c 1
 975 1676 l 1
 580 1540 301 1170 285 761 c 0
EndSplineSet
Validated: 524289
EndChar

StartChar: parenright
Encoding: 41 41 13
Width: 1095
Flags: W
HStem: -409 21G<120.135 385.247>
VStem: 808.946 166.054<448.642 1004.55>
LayerCount: 2
Fore
SplineSet
120.134765625 1833 m 1
 598.134765625 1724 956.134765625 1245 974.134765625 767 c 0
 974.71259648 752.207530106 974.999944343 737.43342408 974.999944343 722.684772138 c 0
 974.999944343 226.950060007 650.359983278 -240.02712844 120.134765625 -409 c 1
 120.134765625 -233 l 1
 530.384134739 -91.4009269726 808.946430879 295.700474956 808.946430879 721.219263807 c 0
 808.946430879 734.444471255 808.677345663 747.706789076 808.134765625 761 c 0
 792.134765625 1172 515.134765625 1540 120.134765625 1676 c 1
 120.134765625 1833 l 1
EndSplineSet
Validated: 524289
EndChar

StartChar: asterisk
Encoding: 42 42 14
Width: 1195
Flags: W
HStem: 1407 20G<565.199 629.626>
VStem: 504 184<1034 1160.43> 569 57<1351.57 1427>
LayerCount: 2
Fore
SplineSet
767 826 m 1xc0
 895 516 l 1
 848 484 l 1
 610 725 l 1
 597 747 l 1
 583 725 l 1
 346 484 l 1
 296 516 l 1
 427 826 l 1
 446 858 l 1
 413 866 l 1
 100 1010 l 1
 112 1066 l 1
 454 1046 l 1
 504 1034 l 1
 504 1085 l 1xc0
 569 1427 l 1
 626 1427 l 1xa0
 688 1085 l 1
 688 1034 l 1
 741 1046 l 1
 1083 1066 l 1
 1095 1010 l 1
 782 866 l 1
 747 858 l 1
 767 826 l 1xc0
EndSplineSet
Validated: 1
EndChar

StartChar: plus
Encoding: 43 43 15
Width: 1235
Flags: W
HStem: 585 166<144 534 700 1089>
VStem: 534 166<196 585 751 1145>
LayerCount: 2
Fore
SplineSet
1089 751 m 1
 1089 585 l 1
 700 585 l 1
 700 196 l 1
 534 196 l 1
 534 585 l 1
 144 585 l 1
 144 751 l 1
 534 751 l 1
 534 1145 l 1
 700 1145 l 1
 700 751 l 1
 1089 751 l 1
EndSplineSet
Validated: 1
EndChar

StartChar: comma
Encoding: 44 44 16
Width: 585
Flags: W
HStem: -239.753 95.405<161.844 312.866> -5.46918 290.469<190.875 323.104>
VStem: 148 291<-109 -95 34.0672 242.125> 326.085 112.915<-130.868 -2>
LayerCount: 2
Fore
SplineSet
293 285 m 0xe0
 376 285 439 219 439 140 c 2xe0
 439 -6 l 2
 439 -109 427 -168 370 -210 c 0
 345.34406099 -228.628931697 316.785455673 -239.752735881 278.073742525 -239.752735881 c 0
 246.132008204 -239.752735881 207.277836619 -232.17942928 158 -215 c 1
 158 -95 l 1
 179.717731534 -128.85411092 208.371637522 -144.347760046 236.664376632 -144.347760046 c 0
 252.665081718 -144.347760046 268.550272392 -139.392322945 283 -130 c 0
 323.163636364 -102.654545455 326.084628099 -73.1183471074 326.084628099 -27.0387137491 c 0xd0
 326.084628099 -19.1953719008 326 -10.8727272727 326 -2 c 1
 314.612987141 -4.34783770285 303.446467958 -5.46917933763 292.605596882 -5.46917933763 c 0
 211.098763837 -5.46917933763 148 57.9174453182 148 140 c 0
 148 219 214 285 293 285 c 0xe0
EndSplineSet
Validated: 524289
EndChar

StartChar: hyphen
Encoding: 45 45 17
Width: 1245
Flags: W
HStem: 586.814 166<150 1095>
LayerCount: 2
Fore
SplineSet
150 586.814453125 m 1
 150 752.814453125 l 1
 1095 752.814453125 l 1
 1095 586.814453125 l 1
 150 586.814453125 l 1
EndSplineSet
Validated: 524289
EndChar

StartChar: period
Encoding: 46 46 18
Width: 575
Flags: W
HStem: 0 291<184.875 389.625>
VStem: 142 291<43.375 248.125>
LayerCount: 2
Fore
SplineSet
287 0 m 0
 208 0 142 67 142 146 c 0
 142 225 208 291 287 291 c 0
 366 291 433 225 433 146 c 0
 433 67 366 0 287 0 c 0
EndSplineSet
Validated: 1
EndChar

StartChar: slash
Encoding: 47 47 19
Width: 1178
Flags: W
HStem: 0 21G<125 301.438>
LayerCount: 2
Fore
SplineSet
886 1799 m 1
 1052 1799 l 1
 293 0 l 1
 125 0 l 1
 886 1799 l 1
EndSplineSet
Validated: 1
EndChar

StartChar: zero
Encoding: 48 48 20
Width: 1199
Flags: W
HStem: -32 159<512.362 770.901> 1291 156<430.512 681.545>
VStem: 99.7979 166<295.814 1116.15> 930.798 168<300.195 1116.61>
LayerCount: 2
Fore
SplineSet
1098.79785156 907 m 2
 1098.79785156 508 l 1
 1098.93323428 501.941623291 1099.00045796 495.933649905 1099.00045796 489.976108919 c 0
 1099.00045796 143.892207869 872.144070571 -32 601.797851562 -32 c 0
 326.797851562 -32 99.7978515625 109 99.7978515625 508 c 2
 99.7978515625 907 l 1
 99.7978515625 1265 326.797851562 1447 601.797851562 1447 c 0
 876.797851562 1447 1098.79785156 1265 1098.79785156 907 c 2
265.797851562 907 m 2
 265.797851562 508 l 1
 265.797851562 376 295.797851562 265 366.797851562 223 c 1
 686.797851562 1281 l 1
 658.797851562 1287 631.797851562 1291 601.797851562 1291 c 0
 423.797851562 1291 265.797851562 1178 265.797851562 907 c 2
601.797851562 127 m 0
 779.797851562 127 930.797851562 241 930.797851562 508 c 2
 930.797851562 907 l 2
 930.797851562 1041 890.797851562 1139 829.797851562 1200 c 1
 509.797851562 140 l 1
 539.797851562 132 569.797851562 127 601.797851562 127 c 0
EndSplineSet
Validated: 524289
EndChar

StartChar: one
Encoding: 49 49 21
Width: 1309
Flags: W
HStem: 0 166<263 656 816 1209> 1118.47 137.597<159.207 463.561>
VStem: 656 160<166 1346>
LayerCount: 2
Fore
SplineSet
1209 166 m 1
 1209 0 l 1
 263 0 l 1
 263 166 l 1
 656 166 l 1
 656 1346 l 1
 654 1346 l 1
 648 1265 626 1207 557 1164 c 0
 506.121087656 1132.65036714 440.715442869 1118.46869081 361.461765682 1118.46869081 c 0
 286.503930082 1118.46869081 199.158604867 1131.15463515 100 1154 c 1
 100 1330 l 1
 167.913975756 1290.09178744 265.240055473 1256.06599568 344.615005076 1256.06599568 c 0
 378.609505956 1256.06599568 409.311382316 1262.30705992 433 1277 c 0
 489.225225225 1310.45045045 497.329762195 1351.49890431 497.329762195 1397.98232637 c 0
 497.329762195 1416.8110543 496 1436.53153153 496 1457 c 1
 816 1457 l 1
 816 166 l 1
 1209 166 l 1
EndSplineSet
Validated: 524289
EndChar

StartChar: two
Encoding: 50 50 22
Width: 1199
Flags: W
HStem: 0 267<881 1047> 0 166<274 881> 1303 158<434.49 786.631>
VStem: 102 172<166 419.646 919 1128.15> 881 166<166 267> 925 174<831.265 1157.7>
LayerCount: 2
Fore
SplineSet
577 526 m 0x74
 366.770453581 481.691530575 272.966665705 452.491747374 272.966665705 280.046855734 c 0
 272.966665705 269.571641752 273.312800704 258.567854814 274 247 c 1
 274 166 l 1
 881 166 l 1x78
 881 267 l 1
 1047 267 l 1
 1047 0 l 1xb8
 102 0 l 1
 102 237 l 2
 102 660 367 655 602 708 c 0
 924 779 925 894 925 951 c 0
 925 1218 780 1303 602 1303 c 0
 424 1303 284 1190 266 919 c 1
 100 919 l 1
 130 1316 327 1461 602 1461 c 0
 877 1461 1099 1309 1099 951 c 0
 1099 807 1043 633 640 540 c 0
 618 536 599 530 577 526 c 0x74
EndSplineSet
Validated: 524289
EndChar

StartChar: three
Encoding: 51 51 23
Width: 1197
Flags: W
HStem: -6 158<435.224 771.566> 724.392 135.608<604.795 833.269> 1309 168<99.7949 839.795>
VStem: 99.7949 167<342.222 534> 930.795 166.205<326.05 643.365>
LayerCount: 2
Fore
SplineSet
604.794921875 860 m 1
 970.794921875 854 1096.79492188 753 1096.79492188 534 c 0
 1096.93202698 527.864546604 1097.00010888 521.780787184 1097.00010888 515.748751943 c 0
 1097.00010888 169.815174047 873.081933931 -6 602.794921875 -6 c 0
 327.794921875 -6 129.794921875 137 99.794921875 534 c 1
 266.794921875 534 l 1
 284.794921875 263 424.794921875 152 602.794921875 152 c 0
 780.794921875 152 930.794921875 267 930.794921875 534 c 0
 930.794921875 711.31147541 725.142677855 724.391830153 477.37836278 724.391830153 c 0
 434.496077478 724.391830153 390.352298924 724 345.794921875 724 c 1
 345.794921875 860 l 1
 839.794921875 1309 l 1
 99.794921875 1309 l 1
 99.794921875 1477 l 1
 1066.79492188 1477 l 1
 1066.79492188 1309 l 1
 604.794921875 860 l 1
EndSplineSet
Validated: 524289
EndChar

StartChar: four
Encoding: 52 52 24
Width: 1222
Flags: W
HStem: 0 21G<735 893> 283 166<266 735 893 1122> 1441 20G<615.605 893>
VStem: 735 158<0 283 449 1348>
LayerCount: 2
Fore
SplineSet
1122 449 m 1
 1122 283 l 1
 893 283 l 1
 893 0 l 1
 735 0 l 1
 735 283 l 1
 100 283 l 1
 100 449 l 1
 626 1461 l 1
 893 1461 l 1
 893 449 l 1
 1122 449 l 1
266 449 m 1
 735 449 l 1
 735 1348 l 1
 266 449 l 1
EndSplineSet
Validated: 1
EndChar

StartChar: five
Encoding: 53 53 25
Width: 1197
Flags: W
HStem: 0 158<435.429 772.302> 700 166<292 401.222> 830 158<505.405 815.504> 1315 166<292 1097>
VStem: 100 167<348.222 540> 132 160<866 1315> 931 166<327.243 716.16>
LayerCount: 2
Fore
SplineSet
660 988 m 0xb6
 933 988 1097 799 1097 538 c 0
 1097 180 876 0 603 0 c 0
 328 0 130 143 100 540 c 1
 267 540 l 1
 285 269 425 158 603 158 c 0
 781 158 931 275 931 540 c 0
 931 714 838 830 660 830 c 0xba
 589 830 454 797 454 700 c 1
 132 700 l 1
 130 1481 l 1
 1097 1481 l 1
 1097 1315 l 1
 292 1315 l 1
 292 866 l 1
 352 866 l 1xd6
 417 939 530 988 660 988 c 0xb6
EndSplineSet
Validated: 1
EndChar

StartChar: six
Encoding: 54 54 26
Width: 1187
Flags: W
HStem: 0 138<429.953 780.1> 826 139<431.16 769.012> 1342.11 161.731<429.41 809.138>
VStem: 100 160<313.774 635.6 696 1169.56> 927 160<288.82 652.363>
LayerCount: 2
Fore
SplineSet
616 0 m 0
 393 0 100 105 100 423 c 2
 100 1018 l 2
 100 1245 199 1370 298 1421 c 0
 393.42061088 1473.00423293 499.084451363 1503.83912468 620.856012805 1503.83912468 c 0
 754.315601782 1503.83912468 907.123450713 1466.80089297 1087 1380 c 1
 984 1168 l 1
 862.285348041 1298.60704662 733.157444564 1342.10838791 621.336873908 1342.10838791 c 0
 531.959769679 1342.10838791 453.639716023 1314.31690001 399 1281 c 0
 318 1230 260 1115 260 996 c 2
 260 696 l 1
 300 856 399 965 620 965 c 0
 934 965 1087 749 1087 470 c 0
 1087 71 764 0 616 0 c 0
616 138 m 0
 792 138 927 261 927 467 c 0
 927 677 784 826 620 826 c 0
 389 826 272 677 272 467 c 0
 272 261 408 138 616 138 c 0
EndSplineSet
Validated: 524289
EndChar

StartChar: seven
Encoding: 55 55 27
Width: 1157
Flags: W
HStem: 0 21G<500 658> 1194 267<100 266> 1301 160<266 889>
VStem: 100 166<1194 1301> 500 158<0 409.058> 889 168<1194 1301>
LayerCount: 2
Fore
SplineSet
100 1461 m 1xdc
 1057 1461 l 1xbc
 1057 1194 l 1
 1057 1194 658 739 658 0 c 1
 500 0 l 1
 500 809 873 1176 889 1194 c 1xdc
 889 1301 l 1
 266 1301 l 1xbc
 266 1194 l 1
 100 1194 l 1
 100 1461 l 1xdc
EndSplineSet
Validated: 1
EndChar

StartChar: eight
Encoding: 56 56 28
Width: 1173
Flags: W
HStem: -4 129<390.72 779.821> 668 160<420.151 753.554> 1334 135<405.318 768.44>
VStem: 100 166<236.707 522.921> 122 160<943.551 1217.96> 891 160<943.551 1220.59> 907 166<235.999 523.366>
LayerCount: 2
Fore
SplineSet
1073 378 m 0xe2
 1073 56 747 -4 581 -4 c 0
 421 -4 100 60 100 378 c 0xf2
 100 542 183 678 355 739 c 1
 355 763 l 1
 232 808 122 903 122 1085 c 0
 122 1300 273 1469 587 1469 c 0
 901 1469 1051 1300 1051 1085 c 0xec
 1051 903 939 808 816 763 c 1
 816 739 l 1
 988 678 1073 542 1073 378 c 0xe2
282 1081 m 0xec
 282 923 413 830 587 828 c 0
 761 830 891 923 891 1081 c 0
 891 1245 751 1334 587 1334 c 0
 423 1334 282 1245 282 1081 c 0xec
587 125 m 0
 769 127 907 208 907 374 c 0
 907 546 759 668 587 668 c 0
 415 668 266 544 266 374 c 0xf2
 266 208 405 127 587 125 c 0
EndSplineSet
Validated: 1
EndChar

StartChar: nine
Encoding: 57 57 29
Width: 1187
Flags: W
HStem: -33.3748 161.848<372.397 755.983> 508 136<419.65 750.206> 1334 137<407.036 756.617>
VStem: 100 161<814.48 1181.86> 927 160<301.281 775 835.188 1157.42>
LayerCount: 2
Fore
SplineSet
571 1471 m 0
 792 1463 1087 1380 1087 927 c 1
 1087 453 l 2
 1087 226 984 100 885 49 c 0
 789.947815203 -2.80344071452 685.634839625 -33.3748245174 565.405460999 -33.3748245174 c 0
 432.659321214 -33.3748245174 280.510242149 3.89331338175 100 91 c 1
 199 302 l 1
 320.331038582 171.804593303 450.256438955 128.473628992 562.928198511 128.473628992 c 0
 653.626620494 128.473628992 733.144829888 156.551725542 788 190 c 0
 869 241 927 357 927 476 c 2
 927 775 l 1
 887 615 784 508 565 508 c 0
 251 508 100 721 100 1000 c 0
 100 1399 423 1471 571 1471 c 0
571 1334 m 0
 395 1334 261 1210 261 1004 c 0
 261 794 401 644 565 644 c 0
 796 644 915 794 915 1004 c 0
 915 1210 779 1334 571 1334 c 0
EndSplineSet
Validated: 524289
EndChar

StartChar: colon
Encoding: 58 58 30
Width: 567
Flags: W
HStem: 0 291<182.875 387.625> 751 293<182.875 387.625>
VStem: 140 291<43.375 248.125 794.375 1000.12>
LayerCount: 2
Fore
SplineSet
285 751 m 0
 206 751 140 818 140 897 c 0
 140 976 206 1044 285 1044 c 0
 364 1044 431 976 431 897 c 0
 431 818 364 751 285 751 c 0
285 291 m 0
 364 291 431 225 431 146 c 0
 431 67 364 0 285 0 c 0
 206 0 140 67 140 146 c 0
 140 225 206 291 285 291 c 0
EndSplineSet
Validated: 1
EndChar

StartChar: semicolon
Encoding: 59 59 31
Width: 567
Flags: W
HStem: -232.329 96.3661<154.109 302.969> 2 291<180.875 315.463> 751 293<180.875 385.625>
VStem: 138 291<-99 -83 45.375 250.125 794.375 1000.12> 316.085 112.915<-121.875 6>
LayerCount: 2
Fore
SplineSet
283 751 m 0xf0
 204 751 138 818 138 897 c 0
 138 976 204 1044 283 1044 c 0
 362 1044 429 976 429 897 c 0
 429 818 362 751 283 751 c 0xf0
429 150 m 1
 429 4 l 2
 429 -99 415 -160 358 -202 c 0
 333.044657102 -220.855147968 304.706370732 -232.32932836 265.82201846 -232.32932836 c 0
 234.589287614 -232.32932836 196.552613869 -224.92659933 148 -208 c 1
 148 -83 l 1
 170.714690128 -118.408193435 201.016985367 -135.963198371 230.557745978 -135.963198371 c 0
 245.234443546 -135.963198371 259.723164856 -131.629942843 273 -123 c 0
 313.163636364 -95.6545454545 316.084628099 -65.3880991736 316.084628099 -19.0960300526 c 0xe8
 316.084628099 -11.2165289256 316 -2.87272727273 316 6 c 1
 316 6 295 2 283 2 c 0
 204 2 138 69 138 148 c 0
 138 227 204 293 283 293 c 0
 362 293 429 229 429 150 c 1
EndSplineSet
Validated: 524289
EndChar

StartChar: less
Encoding: 60 60 32
Width: 1320
Flags: W
LayerCount: 2
Fore
SplineSet
1182 1018 m 1
 249 633 l 1
 1180 245 l 1
 1180 79 l 1
 140 512 l 1
 140 751 l 1
 1182 1184 l 1
 1182 1018 l 1
EndSplineSet
Validated: 1
EndChar

StartChar: equal
Encoding: 61 61 33
Width: 1247
Flags: W
HStem: 170 166<152 1097> 585 166<152 1097>
LayerCount: 2
Fore
SplineSet
1097 585 m 1
 152 585 l 1
 152 751 l 1
 1097 751 l 1
 1097 585 l 1
1097 170 m 1
 152 170 l 1
 152 336 l 1
 1097 336 l 1
 1097 170 l 1
EndSplineSet
Validated: 1
EndChar

StartChar: greater
Encoding: 62 62 34
Width: 1316
Flags: W
LayerCount: 2
Fore
SplineSet
1071 633 m 1
 140 1018 l 1
 140 1184 l 1
 1182 751 l 1
 1182 512 l 1
 142 79 l 1
 142 245 l 1
 1071 633 l 1
EndSplineSet
Validated: 1
EndChar

StartChar: question
Encoding: 63 63 35
Width: 1275
Flags: W
HStem: 0 291<535.875 741.625> 761.046 159.958<670.268 922.247> 1481 160<470.714 811.103>
VStem: 140 166<1099 1307.68> 486.51 144.572<460.605 722.835> 492 293<43.375 248.125> 971 168.203<975.341 1307.05>
LayerCount: 2
Fore
SplineSet
639 291 m 0xf6
 718 291 785 225 785 146 c 0
 785 67 718 0 639 0 c 0
 560 0 492 67 492 146 c 0
 492 225 560 291 639 291 c 0xf6
642 1641 m 0
 912.346219009 1641 1139.2026064 1463.17491073 1139.2026064 1117.02558999 c 0
 1139.2026064 1111.06692286 1139.13538272 1105.05837671 1139 1099 c 0
 1139 913 1000 761 832 761 c 0
 825.066666667 761 818.0992 761.045511111 811.12915437 761.045511111 c 0
 752.755022222 761.045511111 694.2 757.853333333 654 698 c 0
 637.85377905 674.542282771 631.08126602 647.186587991 631.08126602 617.742442541 c 0
 631.08126602 550.53612633 666.364803663 472.449369205 706 405 c 1
 530 405 l 1
 499.852541702 485.993171547 486.509749715 558.887708726 486.509749715 623.592509583 c 0xfa
 486.509749715 702.688277735 506.447685913 769.546244351 540 824 c 0
 598.631067961 919.155339806 679.434253935 921.003016307 815.264116289 921.003016307 c 0
 820.752191535 921.003016307 826.330097087 921 832 921 c 0
 907 921 971 1002 971 1099 c 0
 971 1366 820 1481 642 1481 c 0
 464 1481 306 1370 306 1099 c 1
 140 1099 l 1
 140 1496 367 1641 642 1641 c 0
EndSplineSet
Validated: 524289
EndChar

StartChar: at
Encoding: 64 64 36
Width: 1402
Flags: W
HStem: -451 164<579.604 956.949> -34 131<638.504 911.154> 0 166<1196 1302> 680 132<653.129 921.461> 1030 164<532.183 947.72>
VStem: 100 157<115.56 698.702> 383 152<206.45 551.692> 1035 267<0 125> 1035 161<203.632 560.952 664 949.99>
LayerCount: 2
Fore
SplineSet
1302 0 m 1xbf
 1035 0 l 1xbf
 1035 125 l 1
 1010 125 l 1
 949 -5 836 -34 757 -34 c 0xdf
 640 -34 383 26 383 378 c 0
 383 621 506 812 753 812 c 0
 889 812 966 755 1008 664 c 1
 1035 664 l 1
 1035 854 l 2
 1035 959 927 1030 737 1030 c 0
 302 1030 257 575 257 435 c 0
 257 301 288 -287 778 -287 c 0
 857 -287 1073 -237 1196 -47 c 1
 1196 -281 l 1
 1020 -427 910 -451 778 -451 c 0
 256 -451 100 48 100 435 c 0
 100 822 302 1194 737 1194 c 0
 1018 1194 1196 1028 1196 854 c 2
 1196 166 l 1xbe80
 1302 166 l 1
 1302 0 l 1xbf
775 97 m 0xde80
 933 97 1035 198 1035 374 c 0
 1035 552 943 680 771 680 c 0
 644 680 535 552 535 374 c 0
 535 198 641 97 775 97 c 0xde80
EndSplineSet
Validated: 1
EndChar

StartChar: A
Encoding: 65 65 37
AltUni2: 0000c5.ffffffff.0 0000c4.ffffffff.0 0000c3.ffffffff.0 0000c2.ffffffff.0 0000c1.ffffffff.0 0000c0.ffffffff.0
Width: 1394
Flags: W
HStem: 0 21G<100 291.685 1103.31 1294> 356 160<457 938> 1407 20G<585.104 809.882>
LayerCount: 2
Fore
SplineSet
1110 0 m 1
 991 356 l 1
 404 356 l 1
 285 0 l 1
 100 0 l 1
 592 1427 l 1
 803 1427 l 1
 1294 0 l 1
 1110 0 l 1
457 516 m 1
 938 516 l 1
 697 1236 l 1
 457 516 l 1
EndSplineSet
Validated: 1
EndChar

StartChar: B
Encoding: 66 66 38
Width: 1202
Flags: W
HStem: 0 160<100.161 235.161 395.161 851.278> 635 160<395.161 726.635> 1267.07 160.034<100.161 235.161 395.161 745.804>
VStem: 235.161 160<160 635 795 1267> 822.429 165.012<888.353 1190.7> 937.432 164.568<239.31 539.285>
LayerCount: 2
Fore
SplineSet
828.161132812 708 m 1xf8
 1032.8291152 658.704967657 1101.99956924 519.856971184 1101.99956924 384.994192271 c 0xf4
 1101.99956924 303.726480385 1076.88229645 223.905886319 1041.16113281 166 c 0
 946.652041903 12.1090909091 755.611380746 -0.481983471074 662.272369476 -0.481983471074 c 0
 644.01038901 -0.481983471074 629.488405539 -6.39679281766e-018 620.161132812 0 c 2
 100.161132812 0 l 1
 100.161132812 160 l 1
 235.161132812 160 l 1
 235.161132812 1267 l 1
 100.161132812 1267 l 1
 100.161132812 1427 l 1
 508.161132812 1427 l 2
 519.89582669 1427 532.525980792 1427.10412328 545.85822331 1427.10412328 c 0
 663.181957468 1427.10412328 834.875418526 1419.04081633 929.161132812 1261 c 0
 963.229183578 1203.21368604 987.440881132 1124.41288315 987.440881132 1044.08557277 c 0
 987.440881132 938.142833128 945.325456126 829.544785572 828.161132812 763 c 1
 828.161132812 708 l 1xf8
508.161132812 1267 m 2
 395.161132812 1267 l 1
 395.161132812 795 l 1
 563.161132812 795 l 2
 728.092173785 795 822.429144836 880.654138172 822.429144836 1042.83052946 c 0xf8
 822.429144836 1047.81482762 822.340037248 1052.87140616 822.161132812 1058 c 0
 814.830588879 1258.67364017 653.846169839 1267.07002679 538.476262868 1267.07002679 c 0
 527.940198305 1267.07002679 517.784563774 1267 508.161132812 1267 c 2
620.161132812 160 m 2
 629.981357531 160 643.265286328 159.615143991 658.851144135 159.615143991 c 0
 752.776445132 159.615143991 930.299709591 173.5917603 937.161132812 370 c 0
 937.34189523 375.12160184 937.431893615 380.173315374 937.431893615 385.15475778 c 0xf4
 937.431893615 545.521039684 844.160039251 633.060254139 683.161132812 635 c 1
 395.161132812 635 l 1
 395.161132812 160 l 1
 620.161132812 160 l 2
EndSplineSet
Validated: 524289
EndChar

StartChar: C
Encoding: 67 67 39
AltUni2: 0000c7.ffffffff.0
Width: 1199
Flags: W
HStem: -32 159<430.512 770.901> 1291 156<430.512 770.901>
VStem: 99.7979 166<302.208 1115.81> 930.798 168.203<300.195 508 907 1114.8>
LayerCount: 2
Fore
SplineSet
601.797851562 127 m 0
 779.797851562 127 930.797851562 241 930.797851562 508 c 1
 1098.79785156 508 l 1
 1098.93323428 501.941623291 1099.00045796 495.933649905 1099.00045796 489.976108919 c 0
 1099.00045796 143.892207869 872.144070571 -32 601.797851562 -32 c 0
 326.797851562 -32 99.7978515625 119 99.7978515625 508 c 2
 99.7978515625 907 l 2
 99.7978515625 1263 326.797851562 1447 601.797851562 1447 c 0
 872.144070571 1447 1099.00045796 1271.10779213 1099.00045796 925.023891081 c 0
 1099.00045796 919.066350095 1098.93323428 913.058376709 1098.79785156 907 c 1
 930.797851562 907 l 1
 930.797851562 1174 779.797851562 1291 601.797851562 1291 c 0
 423.797851562 1291 265.797851562 1178 265.797851562 907 c 2
 265.797851562 508 l 2
 265.797851562 243 423.797851562 127 601.797851562 127 c 0
EndSplineSet
Validated: 524289
EndChar

StartChar: D
Encoding: 68 68 40
Width: 1253
Flags: W
HStem: 0 160<144 269 435 791.681> 1267 160<144 269 435 791.681>
VStem: 269 166<160 1267> 951 166<327.988 1098.29>
LayerCount: 2
Fore
SplineSet
1117 888 m 1
 1117 540 l 1
 1117 176 898 0 623 0 c 2
 144 0 l 1
 144 160 l 1
 269 160 l 1
 269 1267 l 1
 144 1267 l 1
 144 1427 l 1
 623 1427 l 2
 898 1427 1117 1248 1117 888 c 1
623 160 m 2
 801 160 951 275 951 540 c 2
 951 888 l 2
 951 1149 801 1267 623 1267 c 2
 435 1267 l 1
 435 160 l 1
 623 160 l 2
EndSplineSet
Validated: 1
EndChar

StartChar: E
Encoding: 69 69 41
AltUni2: 0000cb.ffffffff.0 0000ca.ffffffff.0 0000c9.ffffffff.0 0000c8.ffffffff.0
Width: 1185
Flags: W
HStem: 0 160<100 219 385 1085> 593 158<385 848> 1267 160<100 219 385 1085>
VStem: 219 166<166 593 751 1261>
LayerCount: 2
Fore
SplineSet
1085 1267 m 1
 385 1267 l 1
 385 751 l 1
 848 751 l 1
 848 593 l 1
 385 593 l 1
 385 160 l 1
 1085 160 l 1
 1085 0 l 1
 100 0 l 1
 100 166 l 1
 219 166 l 1
 219 1261 l 1
 100 1261 l 1
 100 1427 l 1
 1085 1427 l 1
 1085 1267 l 1
EndSplineSet
Validated: 1
EndChar

StartChar: F
Encoding: 70 70 42
Width: 1185
Flags: W
HStem: 0 166<100 219 385 502> 593 158<385 848> 1267 160<100 219 385 1085>
VStem: 219 166<166 593 751 1267>
LayerCount: 2
Fore
SplineSet
100 1427 m 1
 1085 1427 l 1
 1085 1267 l 1
 385 1267 l 1
 385 751 l 1
 848 751 l 1
 848 593 l 1
 385 593 l 1
 385 166 l 1
 502 166 l 1
 502 0 l 1
 100 0 l 1
 100 166 l 1
 219 166 l 1
 219 1267 l 1
 100 1267 l 1
 100 1427 l 1
EndSplineSet
Validated: 1
EndChar

StartChar: G
Encoding: 71 71 43
Width: 1199
Flags: W
HStem: -28 158<427.07 770.443> 516 166<597.798 930.798> 1295 158<430.512 770.901>
VStem: 99.7979 166<302.136 1120.15> 930.798 168<-2 87 299.951 516 911 1119.05>
LayerCount: 2
Fore
SplineSet
597.797851562 682 m 1
 1098.79785156 682 l 1
 1098.79785156 -2 l 1
 930.797851562 -2 l 1
 930.797851562 87 l 1
 841.797851562 12 728.797851562 -28 601.797851562 -28 c 0
 326.797851562 -28 99.7978515625 119 99.7978515625 512 c 2
 99.7978515625 911 l 2
 99.7978515625 1306 326.797851562 1453 601.797851562 1453 c 0
 872.144070571 1453 1099.00045796 1275.17491073 1099.00045796 929.025589991 c 0
 1099.00045796 923.06692286 1098.93323428 917.058376709 1098.79785156 911 c 1
 930.797851562 911 l 1
 930.797851562 1178 779.797851562 1295 601.797851562 1295 c 0
 423.797851562 1295 265.797851562 1182 265.797851562 911 c 2
 265.797851562 512 l 2
 265.797851562 235 423.797851562 130 601.797851562 130 c 0
 779.797851562 130 930.797851562 249 930.797851562 516 c 1
 597.797851562 516 l 1
 597.797851562 682 l 1
EndSplineSet
Validated: 524289
EndChar

StartChar: H
Encoding: 72 72 44
Width: 1145
Flags: W
HStem: 585 166<266 879>
VStem: 100 166<-2 585 751 1425> 879 166<-2 585 751 1425>
LayerCount: 2
Fore
SplineSet
879 1425 m 1
 1045 1425 l 1
 1045 -2 l 1
 879 -2 l 1
 879 585 l 1
 266 585 l 1
 266 -2 l 1
 100 -2 l 1
 100 1425 l 1
 266 1425 l 1
 266 751 l 1
 879 751 l 1
 879 1425 l 1
EndSplineSet
Validated: 1
EndChar

StartChar: I
Encoding: 73 73 45
AltUni2: 0000cf.ffffffff.0 0000ce.ffffffff.0 0000cd.ffffffff.0 0000cc.ffffffff.0
Width: 1145
Flags: W
HStem: 0 166<100 490 656 1045> 1261 166<100 490 656 1045>
VStem: 490 166<166 1261>
LayerCount: 2
Fore
SplineSet
1045 1261 m 1
 656 1261 l 1
 656 166 l 1
 1045 166 l 1
 1045 0 l 1
 100 0 l 1
 100 166 l 1
 490 166 l 1
 490 1261 l 1
 100 1261 l 1
 100 1427 l 1
 1045 1427 l 1
 1045 1261 l 1
EndSplineSet
Validated: 1
EndChar

StartChar: J
Encoding: 74 74 46
Width: 1199
Flags: W
HStem: -32 159<432.127 776.059> 1255 166<599 931>
VStem: 100 167<316.415 508> 931 168<298.391 1255>
LayerCount: 2
Fore
SplineSet
599 1421 m 1
 1099 1421 l 1
 1099 508 l 1
 1097 508 l 1
 1097 150 878 -32 603 -32 c 0
 328 -32 130 111 100 508 c 1
 267 508 l 1
 285 237 425 127 603 127 c 0
 781 127 931 237 931 508 c 2
 931 1255 l 1
 599 1255 l 1
 599 1421 l 1
EndSplineSet
Validated: 1
EndChar

StartChar: K
Encoding: 75 75 47
Width: 1167
Flags: W
HStem: 0 21G<100 266 851.656 1067> 640 149<266 314> 1407 20G<100 266 851.602 1067>
VStem: 100 166<0 640 789 1427>
LayerCount: 2
Fore
SplineSet
468 737 m 1
 468 690 l 1
 1067 0 l 1
 869 0 l 1
 314 640 l 1
 266 640 l 1
 266 0 l 1
 100 0 l 1
 100 1427 l 1
 266 1427 l 1
 266 789 l 1
 314 789 l 1
 869 1427 l 1
 1067 1427 l 1
 468 737 l 1
EndSplineSet
Validated: 1
EndChar

StartChar: L
Encoding: 76 76 48
Width: 1066
Flags: W
HStem: 2 160<266 966>
VStem: 100 166<162 1425>
LayerCount: 2
Fore
SplineSet
266 162 m 1
 966 162 l 1
 966 2 l 1
 100 2 l 1
 100 1425 l 1
 266 1425 l 1
 266 162 l 1
EndSplineSet
Validated: 1
EndChar

StartChar: M
Encoding: 77 77 49
Width: 1256
Flags: W
HStem: 0 21G<100 266 470.73 785.27 990 1156> 1407 20G<100 272.047 984.02 1156>
VStem: 100 166<0 797 1379.58 1427> 990 166<0 797 1379.05 1427>
LayerCount: 2
Fore
SplineSet
990 1427 m 1
 1156 1427 l 1
 1156 0 l 1
 990 0 l 1
 990 797 l 1
 780 0 l 1
 476 0 l 1
 266 797 l 1
 266 0 l 1
 100 0 l 1
 100 1427 l 1
 266 1427 l 1
 630 223 l 1
 990 1427 l 1
EndSplineSet
Validated: 1
EndChar

StartChar: N
Encoding: 78 78 50
AltUni2: 0000d1.ffffffff.0
Width: 1133
Flags: W
HStem: 0 111<822 867> 1407 20G<100 274.45 867 1033>
VStem: 100 166<0 1032> 867 166<111 1427>
LayerCount: 2
Fore
SplineSet
867 1427 m 1
 1033 1427 l 1
 1033 0 l 1
 701 0 l 1
 266 1032 l 1
 266 0 l 1
 100 0 l 1
 100 1427 l 1
 266 1427 l 1
 822 111 l 1
 867 111 l 1
 867 1427 l 1
EndSplineSet
Validated: 1
EndChar

StartChar: O
Encoding: 79 79 51
AltUni2: 0000d8.ffffffff.0 0000d6.ffffffff.0 0000d5.ffffffff.0 0000d4.ffffffff.0 0000d3.ffffffff.0 0000d2.ffffffff.0
Width: 1199
Flags: W
HStem: -32 159<427.272 772.023> 1291 156<430.714 772.023>
VStem: 100 166<299.549 1116.15> 931 168<297.59 1119.81>
LayerCount: 2
Fore
SplineSet
1099 907 m 1
 1099 508 l 1
 1099 148 877 -32 602 -32 c 0
 327 -32 100 111 100 508 c 2
 100 907 l 2
 100 1304 327 1447 602 1447 c 0
 877 1447 1099 1273 1099 907 c 1
602 127 m 0
 780 127 931 241 931 508 c 2
 931 907 l 2
 931 1174 780 1291 602 1291 c 0
 424 1291 266 1178 266 907 c 2
 266 508 l 2
 266 237 424 127 602 127 c 0
EndSplineSet
Validated: 1
EndChar

StartChar: P
Encoding: 80 80 52
Width: 1139
Flags: W
HStem: 0 21G<100 266> 593 158<266 761.714> 1267 160<266 750.016>
VStem: 100 166<0 593 751 1267> 881 158<852.152 1157.96>
LayerCount: 2
Fore
SplineSet
500 1427 m 2
 893 1427 1039 1279 1039 1004 c 0
 1039 729 862 593 500 593 c 2
 266 593 l 1
 266 0 l 1
 100 0 l 1
 100 1427 l 1
 500 1427 l 2
500 751 m 2
 783 751 881 826 881 1004 c 0
 881 1182 775 1267 500 1267 c 2
 266 1267 l 1
 266 751 l 1
 500 751 l 2
EndSplineSet
Validated: 1
EndChar

StartChar: Q
Encoding: 81 81 53
Width: 1199
Flags: W
HStem: -316.388 139.81<708.814 1018.31> -32 153<426.882 510.864 671.864 768.17> 1285 156<430.578 771.887>
VStem: 99.8643 166<298.894 1110.15> 510.45 161.415<-139.641 -26.969> 930.864 168.136<288.033 1110.61>
LayerCount: 2
Fore
SplineSet
671.864257812 -34 m 1
 673.995659336 -137.372973911 747.961231574 -176.577874378 837.480366358 -176.577874378 c 0
 915.961739744 -176.577874378 1006.39761039 -146.444914568 1070.86425781 -103 c 1
 1070.86425781 -279 l 1
 976.338239993 -302.778283985 888.016960605 -316.387691102 810.707042785 -316.387691102 c 0
 630.745014746 -316.387691102 510.449733231 -242.643037482 510.449733231 -51.7564630927 c 0
 510.449733231 -45.3053269503 510.587128013 -38.7203976247 510.864257812 -32 c 1
 279.864257812 -2 99.8642578125 150 99.8642578125 502 c 2
 99.8642578125 901 l 2
 99.8642578125 1298 326.864257812 1441 601.864257812 1441 c 0
 876.864257812 1441 1098.86425781 1259 1098.86425781 901 c 2
 1098.86425781 502 l 1
 1098.95478711 497.081241575 1098.99978555 492.195720673 1098.99978555 487.343451032 c 0
 1098.99978555 170.60239037 907.258174182 -4.45264648081 671.864257812 -34 c 1
601.864257812 121 m 0
 779.864257812 121 930.864257812 235 930.864257812 502 c 2
 930.864257812 901 l 2
 930.864257812 1168 779.864257812 1285 601.864257812 1285 c 0
 423.864257812 1285 265.864257812 1172 265.864257812 901 c 2
 265.864257812 502 l 2
 265.864257812 231 423.864257812 121 601.864257812 121 c 0
EndSplineSet
Validated: 524289
EndChar

StartChar: R
Encoding: 82 82 54
Width: 1139
Flags: W
HStem: 0 21G<100 266 867 1039> 593 158<266 765.926> 1267 160<266 750.016>
VStem: 100 166<0 593 751 1267> 881 158<0 571.173 849.713 1157.96>
LayerCount: 2
Fore
SplineSet
901 696 m 1
 982 662 1039 595 1039 494 c 2
 1039 0 l 1
 867 0 l 1
 867 508 l 2
 867 555 829 593 782 593 c 2
 266 593 l 1
 266 0 l 1
 100 0 l 1
 100 1427 l 1
 500 1427 l 2
 893 1427 1039 1279 1039 1004 c 0
 1039 866 994 765 901 696 c 1
266 751 m 1
 500 751 l 2
 783 751 881 826 881 1004 c 0
 881 1182 775 1267 500 1267 c 2
 266 1267 l 1
 266 751 l 1
EndSplineSet
Validated: 1
EndChar

StartChar: S
Encoding: 83 83 55
Width: 1213
Flags: W
HStem: -45.2053 173.654<434.637 811.503> 0 21G<100.343 231.343> 1297.91 171.451<412.8 793.648> 1419 20G<925.343 1051.34>
VStem: 100.343 131<0 99 312.306 555> 112.442 177.601<943.187 1184.41> 925.343 126<943 1184.85 1378 1439> 940.675 172.326<246.188 523.535>
LayerCount: 2
Fore
SplineSet
610.342773438 816 m 0x26
 842.758421357 764.460128286 1113.00046125 738.453071153 1113.00046125 377.492782957 c 0
 1113.00046125 367.266751939 1112.78356688 356.771889806 1112.34277344 346 c 0
 1100.34277344 142 938.342773438 -12 709.342773438 -40 c 0
 682.792923409 -43.4767660752 655.943373322 -45.2052818118 629.038832244 -45.2052818118 c 0xa1
 485.698987903 -45.2052818118 340.79824663 3.85793484096 231.342773438 99 c 1
 231.342773438 0 l 1
 100.342773438 0 l 1
 100.342773438 555 l 1
 231.342773438 555 l 1x49
 231.342773438 490 239.342773438 400 245.342773438 378 c 0
 298.000083037 210.210606703 473.326168028 128.448666278 631.270036365 128.448666278 c 0
 650.294727624 128.448666278 669.067224824 129.634929003 687.342773438 132 c 0
 742.342773438 140 920.342773438 176 938.342773438 356 c 0
 939.909221517 370.685450743 940.674789732 384.489081635 940.674789732 397.477067265 c 0
 940.674789732 583.481732097 783.657322695 602.198164829 573.342773438 648 c 0
 350.124917926 697.305148808 112.44162156 789.202984573 112.44162156 1039.68192642 c 0
 112.44162156 1068.61278526 115.612494756 1099.65923484 122.342773438 1133 c 0
 168.496260685 1361.81728888 385.365544708 1469.35875184 602.095150146 1469.35875184 c 0x65
 718.770513738 1469.35875184 835.405396289 1438.19155202 925.342773438 1378 c 1
 925.342773438 1439 l 1
 1051.34277344 1439 l 1x16
 1051.34277344 943 l 1
 925.342773438 943 l 1
 925.342773438 1058 l 1
 925.396629822 1059.94556186 925.423384565 1061.88020149 925.423384565 1063.80388503 c 0
 925.423384565 1214.45158358 761.34229597 1297.90787932 599.785373111 1297.90787932 c 0
 456.962431472 1297.90787932 316.112197213 1232.68440839 292.342773438 1091 c 0
 290.789288503 1080.00610661 290.042622045 1069.45846239 290.042622045 1059.33616342 c 0
 290.042622045 900.04595819 474.946690001 846.088018542 610.342773438 816 c 0x26
EndSplineSet
Validated: 524289
EndChar

StartChar: T
Encoding: 84 84 56
Width: 1145
Flags: W
HStem: 0 166<371 490 656 776> 1046 383<100 231 917 1045> 1263 166<231 490 656 917>
VStem: 100 131<1046 1263> 490 166<166 1263> 917 128<1046 1263>
LayerCount: 2
Fore
SplineSet
100 1429 m 1xdc
 1045 1429 l 1
 1045 1046 l 1
 917 1046 l 1xdc
 917 1263 l 1
 656 1263 l 1
 656 166 l 1
 776 166 l 1
 776 0 l 1
 371 0 l 1
 371 166 l 1
 490 166 l 1
 490 1263 l 1
 231 1263 l 1xbc
 231 1046 l 1
 100 1046 l 1
 100 1429 l 1xdc
EndSplineSet
Validated: 1
EndChar

StartChar: U
Encoding: 85 85 57
AltUni2: 0000dc.ffffffff.0 0000db.ffffffff.0 0000da.ffffffff.0 0000d9.ffffffff.0
Width: 1198
Flags: W
HStem: -32 159<427.272 772.098>
VStem: 100 166<299.549 1421> 932 166<296.789 1421>
LayerCount: 2
Fore
SplineSet
932 1421 m 1
 1098 1421 l 1
 1098 508 l 1
 1098 146 877 -32 602 -32 c 0
 327 -32 100 117 100 508 c 2
 100 1421 l 1
 266 1421 l 1
 266 508 l 2
 266 237 424 127 602 127 c 0
 780 127 932 241 932 508 c 2
 932 1421 l 1
EndSplineSet
Validated: 1
EndChar

StartChar: V
Encoding: 86 86 58
Width: 1256
Flags: W
HStem: 0 111<612 644> 1407 20G<100 272.243 984.742 1156>
LayerCount: 2
Fore
SplineSet
1156 1427 m 1
 780 0 l 1
 476 0 l 1
 100 1427 l 1
 267 1427 l 1
 612 111 l 1
 644 111 l 1
 990 1427 l 1
 1156 1427 l 1
EndSplineSet
Validated: 1
EndChar

StartChar: W
Encoding: 87 87 59
Width: 1360
Flags: W
HStem: 0 111<320 342 1022 1044> 1026 20G<525.979 839.979> 1407 20G<154 320 1044 1212>
VStem: 154 166<111 1427> 1044 168<111 1427>
LayerCount: 2
Fore
SplineSet
1044 1427 m 1
 1212 1427 l 1
 1212 0 l 1
 878 0 l 1
 690 935 l 1
 674 935 l 1
 486 0 l 1
 154 0 l 1
 154 1427 l 1
 320 1427 l 1
 320 111 l 1
 342 111 l 1
 530 1046 l 1
 836 1046 l 1
 1022 111 l 1
 1044 111 l 1
 1044 1427 l 1
EndSplineSet
Validated: 1
EndChar

StartChar: X
Encoding: 88 88 60
Width: 1260
Flags: W
HStem: 0 21G<100 300.467 963.533 1160> 1407 20G<100 299.941 964.059 1160>
LayerCount: 2
Fore
SplineSet
808 718 m 1
 808 676 l 1
 1160 0 l 1
 974 0 l 1
 638 642 l 1
 626 642 l 1
 290 0 l 1
 100 0 l 1
 454 676 l 1
 454 718 l 1
 100 1427 l 1
 290 1427 l 1
 626 751 l 1
 638 751 l 1
 974 1427 l 1
 1160 1427 l 1
 808 718 l 1
EndSplineSet
Validated: 1
EndChar

StartChar: Y
Encoding: 89 89 61
AltUni2: 0000dd.ffffffff.0
Width: 1339
Flags: W
HStem: 0 166<466 585 753 869> 1261 166<100 245 411 502 834 927 1093 1239>
VStem: 585 168<166 589>
LayerCount: 2
Fore
SplineSet
753 589 m 1
 753 166 l 1
 869 166 l 1
 869 0 l 1
 466 0 l 1
 466 166 l 1
 585 166 l 1
 585 589 l 1
 245 1261 l 1
 100 1261 l 1
 100 1427 l 1
 502 1427 l 1
 502 1261 l 1
 411 1261 l 1
 668 751 l 1
 927 1261 l 1
 834 1261 l 1
 834 1427 l 1
 1239 1427 l 1
 1239 1261 l 1
 1093 1261 l 1
 753 589 l 1
EndSplineSet
Validated: 1
EndChar

StartChar: Z
Encoding: 90 90 62
Width: 1202
Flags: W
HStem: 0 166<266 936> 1046 21G<100 266> 1261 166<266 936>
VStem: 100 166<166 204 1046 1261> 936 166<166 405 1224 1261>
LayerCount: 2
Fore
SplineSet
100 1427 m 1
 1102 1427 l 1
 1102 1170 l 1
 266 204 l 1
 266 166 l 1
 936 166 l 1
 936 405 l 1
 1102 405 l 1
 1102 0 l 1
 100 0 l 1
 100 259 l 1
 936 1224 l 1
 936 1261 l 1
 266 1261 l 1
 266 1046 l 1
 100 1046 l 1
 100 1427 l 1
EndSplineSet
Validated: 1
EndChar

StartChar: bracketleft
Encoding: 91 91 63
Width: 800
Flags: W
HStem: -409 168<320 652> 1473 166<320 652>
VStem: 154 498<-409 -241 1473 1639> 154 166<-241 1473>
LayerCount: 2
Fore
SplineSet
652 1473 m 1xe0
 320 1473 l 1
 320 -241 l 1xd0
 652 -241 l 1
 652 -409 l 1
 154 -409 l 1
 154 1639 l 1
 652 1639 l 1
 652 1473 l 1xe0
EndSplineSet
Validated: 1
EndChar

StartChar: backslash
Encoding: 92 92 64
Width: 1178
Flags: W
LayerCount: 2
Fore
SplineSet
295 1797 m 1
 1054 -4 l 1
 888 -4 l 1
 127 1797 l 1
 295 1797 l 1
EndSplineSet
Validated: 1
EndChar

StartChar: bracketright
Encoding: 93 93 65
Width: 800
Flags: W
HStem: -409 168<150 482> 1473 166<150 482>
VStem: 150 498<-409 -241 1473 1639> 482 166<-241 1473>
LayerCount: 2
Fore
SplineSet
150 1639 m 1xe0
 648 1639 l 1
 648 -409 l 1
 150 -409 l 1
 150 -241 l 1xe0
 482 -241 l 1
 482 1473 l 1xd0
 150 1473 l 1
 150 1639 l 1xe0
EndSplineSet
Validated: 1
EndChar

StartChar: a
Encoding: 97 97 66
AltUni2: 0000e5.ffffffff.0 0000e4.ffffffff.0 0000e3.ffffffff.0 0000e2.ffffffff.0 0000e1.ffffffff.0 0000e0.ffffffff.0
Width: 1028
Flags: W
HStem: -32 149<322.596 628.878> 0 21G<766 928> 483.267 159.102<342.948 766> 904.665 142.303<215.989 641.696>
VStem: 99.697 162.486<180.192 413.361> 766 162<0 117 252.475 480 640 789.586>
LayerCount: 2
Fore
SplineSet
726 986 m 0xbc
 823 933 928 867 928 640 c 2
 928 0 l 1
 766 0 l 1x7c
 766 117 l 1
 707 34 607 -32 437 -32 c 0
 265 -32 127 83 103 249 c 0
 100.819581792 264.262927459 99.6969783261 279.989391715 99.6969783261 295.968181532 c 0
 99.6969783261 426.555676625 174.676349367 573.996150073 360 623 c 0
 418.58321223 638.70271668 499.051807106 642.368472905 587.527209194 642.368472905 c 0
 645.546232314 642.368472905 707.008398799 640.792098717 768 640 c 1
 768 759 702 830 629 868 c 0
 579.499138454 893.137156254 519.529315081 904.664662133 454.758589897 904.664662133 c 0
 352.044294323 904.664662133 237.256668259 875.675236053 133 826 c 1
 135 982 l 1
 220.112547516 1020.13484272 339.130482857 1046.96788949 457.614945476 1046.96788949 c 0
 553.51258956 1046.96788949 649.060767355 1029.39014864 726 986 c 0xbc
437 117 m 0xbc
 736 117 762 340 766 391 c 2
 766 480 l 1
 713.304347826 480 642.370510397 483.266540643 573.933919619 483.266540643 c 0
 511.200378072 483.266540643 450.565217391 480.52173913 408 470 c 0
 297.753187414 441.776815978 262.182760735 365.325132724 262.182760735 300.332993271 c 0
 262.182760735 291.635769367 262.819745007 283.143759452 264 275 c 0
 274 204 330 117 437 117 c 0xbc
EndSplineSet
Validated: 524289
Substitution2: "'aalt' Access All Alternates in Latin lookup 0 subtable" a.alt1
EndChar

StartChar: b
Encoding: 98 98 67
Width: 1280
Flags: W
HStem: -26 153<530.432 865.005> 0 21G<205 365> 890 152<538.181 850.132> 1265 166<100 205>
VStem: 100 265<1265 1431> 205 160<0 170 296.641 702.782 854 1265> 1020 160<293.394 697.081>
LayerCount: 2
Fore
SplineSet
715 1042 m 0x76
 1029 1042 1180 806 1180 496 c 0
 1180 51 857 -26 709 -26 c 0xb6
 608 -26 470 10 391 170 c 1
 365 170 l 1
 365 0 l 1
 205 0 l 1
 205 1265 l 1x76
 100 1265 l 1
 100 1431 l 1
 365 1431 l 1x7a
 365 854 l 1
 387 854 l 1
 440 971 539 1042 713 1042 c 2
 715 1042 l 0x76
709 127 m 0
 885 127 1020 261 1020 490 c 0
 1020 723 875 890 715 890 c 0
 482 890 365 723 365 490 c 0
 365 261 501 127 709 127 c 0
EndSplineSet
Validated: 1
EndChar

StartChar: c
Encoding: 99 99 68
AltUni2: 0000e7.ffffffff.0
Width: 1203
Flags: W
HStem: -32 153<444.647 756.206> 886 152<436.657 769.861>
VStem: 100 153<322.549 702.556> 940 163<615 722.252>
LayerCount: 2
Fore
SplineSet
600 121 m 0
 717 121 862 202 913 330 c 1
 1075 289 l 1
 1016 99 829 -32 600 -32 c 0
 286 -32 100 206 100 516 c 0
 100 961 452 1038 600 1038 c 0
 736 1038 1060 973 1103 615 c 1
 940 615 l 1
 908 787 750 886 600 886 c 0
 424 886 253 749 253 520 c 0
 253 259 436 121 600 121 c 0
EndSplineSet
Validated: 1
EndChar

StartChar: d
Encoding: 100 100 69
Width: 1267
Flags: W
HStem: -26 153<456.995 786.834> 892 152<470.906 785.761> 1265 168<850 957>
VStem: 142 160<294.12 697.808> 850 267<1265 1433> 957 160<2 170 298.136 704.782 854 1265>
LayerCount: 2
Fore
SplineSet
850 1433 m 1xf8
 1117 1433 l 1xf8
 1117 2 l 1
 957 2 l 1
 957 170 l 1
 927 170 l 1
 848 10 714 -26 613 -26 c 0
 465 -26 142 51 142 496 c 0
 142 804 293 1044 607 1044 c 0
 781 1044 878 971 931 854 c 1
 957 854 l 1
 957 1265 l 1xf4
 850 1265 l 1
 850 1433 l 1xf8
613 127 m 0
 821 127 957 263 957 492 c 0xf4
 957 725 838 892 607 892 c 0
 443 892 302 725 302 492 c 0
 302 263 437 127 613 127 c 0
EndSplineSet
Validated: 1
EndChar

StartChar: e
Encoding: 101 101 70
AltUni2: 0000eb.ffffffff.0 0000ea.ffffffff.0 0000e9.ffffffff.0 0000e8.ffffffff.0
Width: 1207
Flags: W
HStem: -32 153<450.534 755.79> 447 168<270 940> 876 162<431.045 778.124>
LayerCount: 2
Fore
SplineSet
600 121 m 0
 715 121 862 202 913 330 c 1
 1075 289 l 1
 1016 99 829 -32 600 -32 c 0
 286 -32 100 206 100 516 c 0
 100 961 456 1038 604 1038 c 0
 780 1038 998 963 1081 688 c 0
 1105 609 1107 504 1107 451 c 1
 266 447 l 1
 298 253 454 121 600 121 c 0
604 876 m 0
 454 876 308 787 270 615 c 1
 940 615 l 1
 908 787 754 876 604 876 c 0
EndSplineSet
Validated: 1
EndChar

StartChar: f
Encoding: 102 102 71
Width: 1066
Flags: W
HStem: 0 166<286 409 569 689> 886 160<100 409 569 964> 1264.14 166.121<609.053 906.718>
VStem: 409 160<166 886 1046 1224.54>
LayerCount: 2
Fore
SplineSet
632 1241 m 0
 579 1203 569 1161 569 1046 c 1
 964 1046 l 1
 964 886 l 1
 569 886 l 1
 569 166 l 1
 689 166 l 1
 689 0 l 1
 286 0 l 1
 286 166 l 1
 409 166 l 1
 409 886 l 1
 100 886 l 1
 100 1046 l 1
 409 1046 l 1
 409 1258 417 1327 508 1384 c 0
 558.402092339 1416.07405876 623.319108777 1430.26365747 701.827333978 1430.26365747 c 0
 777.525292174 1430.26365747 865.858856942 1417.07173394 966 1394 c 1
 966 1190 l 1
 898.834248045 1229.46853465 801.462522146 1264.14247027 722.355746081 1264.14247027 c 0
 687.217433615 1264.14247027 655.682856696 1257.30118708 632 1241 c 0
EndSplineSet
Validated: 524289
EndChar

StartChar: g
Encoding: 103 103 72
Width: 1280
Flags: W
HStem: -461.346 151.952<379.966 778.987> -24 152<414.995 744.834> 876 168<1075 1180> 894 152<428.906 741.044>
VStem: 100 160<295.257 699.06> 915 265<876 1044> 915 160<-156.892 172 298.388 705.329 856 876>
LayerCount: 2
Fore
SplineSet
915 1044 m 1xec
 1180 1044 l 1
 1180 876 l 1xec
 1075 876 l 1xea
 1075 2 l 2
 1075 -225 968 -344 873 -401 c 0
 789.898973987 -451.932886911 675.658458962 -461.346455142 597.343800313 -461.346455142 c 0
 588.014977242 -461.346455142 579.195924699 -461.212881161 571 -461 c 0
 498 -459 385 -446 282 -397 c 1
 282 -225 l 1
 388.158121176 -275.581222443 506.404683439 -309.394607247 610.197334774 -309.394607247 c 0
 672.616656028 -309.394607247 729.808522968 -297.165534775 776 -269 c 0
 857 -218 915 -101 915 18 c 2
 915 172 l 1
 885 172 l 1
 806 12 672 -24 571 -24 c 0
 423 -24 100 53 100 498 c 0
 100 806 251 1046 565 1046 c 0
 739 1046 836 973 889 856 c 1
 915 856 l 1xda
 915 1044 l 1xec
571 128 m 0
 779 128 915 263 915 492 c 0
 915 725 796 894 565 894 c 0xda
 401 894 260 725 260 492 c 0
 260 263 395 128 571 128 c 0
EndSplineSet
Validated: 524289
EndChar

StartChar: h
Encoding: 104 104 73
Width: 1280
Flags: W
HStem: 0 21G<205 363 1020 1180> 878.069 163.931<536.215 848.426> 1265 166<100 205>
VStem: 100 265<1265 1431> 205 160<0 689.614 854 1265> 1020 160<0 681.605>
LayerCount: 2
Fore
SplineSet
713 1042 m 2xec
 1027 1042 1180 806 1180 496 c 2
 1180 0 l 1
 1020 0 l 1
 1020 478 l 2
 1020 711 877 874 713 878 c 0
 710.419012711 878.045884218 707.851447102 878.068741045 705.297334871 878.068741045 c 0
 485.194305531 878.068741045 365 708.327244274 365 478 c 1
 363 478 l 1
 363 0 l 1
 205 0 l 1
 205 1265 l 1xec
 100 1265 l 1
 100 1431 l 1
 365 1431 l 1xf4
 365 854 l 1
 387 854 l 1
 440 971 539 1042 713 1042 c 2xec
EndSplineSet
Validated: 524289
EndChar

StartChar: i
Encoding: 105 105 74
AltUni2: 0000ef.ffffffff.0 0000ee.ffffffff.0 0000ed.ffffffff.0 0000ec.ffffffff.0
Width: 946
Flags: W
HStem: 5.98609 148.871<489.159 786.803> 886 160<100 290> 1172 291<267.375 471.125>
VStem: 225 289<1215.88 1420.62> 289.997 159.983<196.884 886>
LayerCount: 2
Fore
SplineSet
369 1172 m 0xf0
 290 1172 225 1240 225 1319 c 0
 225 1398 290 1463 369 1463 c 0
 448 1463 514 1398 514 1319 c 0
 514 1240 448 1172 369 1172 c 0xf0
514 178 m 0
 537.682856696 161.698812924 569.028235537 154.857529731 603.90453499 154.857529731 c 0
 682.421441954 154.857529731 778.834248045 189.531465346 846 229 c 1
 846 42 l 1
 745.892791569 18.936084332 657.344352664 5.98609200009 581.41820916 5.98609200009 c 0
 502.620896506 5.98609200009 437.418560614 19.9340182074 387 51 c 0
 291.844660194 109.631067961 289.996983693 193.205768687 289.996983693 329.250894322 c 0
 289.996983693 334.747667075 290 340.330097087 290 346 c 2
 290 886 l 1
 100 886 l 1
 100 1046 l 1
 450 1046 l 1
 450 356 l 2
 450 350.657534247 449.979733533 345.294802027 449.979733533 339.926239727 c 0xe8
 449.979733533 279.977294051 452.506849315 219.301369863 514 178 c 0
EndSplineSet
Validated: 524289
EndChar

StartChar: j
Encoding: 106 106 75
Width: 1058
Flags: W
HStem: -459.292 172.928<192.646 598.778> 886 160<541 731> 1172 291<709.375 914.625>
VStem: 666 292<1215.88 1420.62> 731 160<-144.719 886>
LayerCount: 2
Fore
SplineSet
731 886 m 1xe8
 541 886 l 1
 541 1046 l 1
 891 1046 l 1
 891 6 l 2
 891 -221 787 -340 692 -397 c 0
 607.544988198 -448.762749169 488.45345671 -459.291546329 409.616027115 -459.291546329 c 0
 401.639414583 -459.291546329 394.074882702 -459.183763187 387 -459 c 0
 314 -457 203 -442 100 -393 c 1
 100 -204 l 1
 204.762599485 -253.916297402 321.677672051 -286.36341475 424.7678577 -286.36341475 c 0
 488.963818506 -286.36341475 547.79882198 -273.78120611 595 -245 c 0
 676 -194 731 -101 731 18 c 2
 731 886 l 1xe8
812 1463 m 0
 891 1463 958 1398 958 1319 c 0
 958 1240 891 1172 812 1172 c 0
 733 1172 666 1240 666 1319 c 0xf0
 666 1398 733 1463 812 1463 c 0
EndSplineSet
Validated: 524289
EndChar

StartChar: k
Encoding: 107 107 76
Width: 1015
Flags: W
HStem: 0 21G<100 266 687.506 915> 447 148<266 314> 1026 20G<683.838 913> 1409 20G<100 266>
VStem: 100 166<0 447 595 1429>
LayerCount: 2
Fore
SplineSet
705 0 m 1
 314 447 l 1
 266 447 l 1
 266 0 l 1
 100 0 l 1
 100 1429 l 1
 266 1429 l 1
 266 595 l 1
 314 595 l 1
 701 1046 l 1
 913 1046 l 1
 486 552 l 1
 486 492 l 1
 915 0 l 1
 705 0 l 1
EndSplineSet
Validated: 1
EndChar

StartChar: l
Encoding: 108 108 77
Width: 986
Flags: W
HStem: -31.5313 168.613<509.691 806.945> 1239 161<120 310>
VStem: 309.997 159.983<178.508 1239>
LayerCount: 2
Fore
SplineSet
534 160 m 0
 557.457717229 143.85377905 588.432962592 137.08126602 622.910848323 137.08126602 c 0
 701.606685994 137.08126602 798.550630795 172.364803663 866 212 c 1
 866 4 l 1
 766.841395133 -18.8453648467 679.023538732 -31.5313091936 603.580008732 -31.5313091936 c 0
 523.812801947 -31.5313091936 457.878912344 -17.3496328585 407 14 c 0
 311.844660194 72.6310679612 309.996983693 155.281930436 309.996983693 291.255301644 c 0
 309.996983693 296.749175229 310 302.330097087 310 308 c 2
 310 1239 l 1
 120 1239 l 1
 120 1400 l 1
 470 1400 l 1
 470 338 l 2
 470 332.657534247 469.979733533 327.294802027 469.979733533 321.926239727 c 0
 469.979733533 261.977294051 472.506849315 201.301369863 534 160 c 0
EndSplineSet
Validated: 524289
EndChar

StartChar: m
Encoding: 109 109 78
Width: 1254
Flags: W
HStem: 0 21G<100.219 260.219 549.219 707.219 992.219 1152.22> 888 152<328.473 514.364 773.476 957.485>
VStem: 100.219 160<0 836.172 909 1046> 549.219 158<0 840.177> 992.963 161.037<0 852.788>
LayerCount: 2
Fore
SplineSet
915.21875 1040 m 0
 1130.67459046 1040 1154.00029398 872.423235201 1154.00029398 732.524976152 c 0
 1154.00029398 693.86218456 1152.21875 657.313390313 1152.21875 627 c 2
 1152.21875 0 l 1
 992.21875 0 l 1
 992.21875 627 l 2
 992.21875 648.572916667 992.962999132 671.830186632 992.962999132 695.260053847 c 0
 992.962999132 790.212673611 980.739583333 888 857.21875 888 c 0
 707.21875 888 707.21875 728 707.21875 627 c 2
 707.21875 0 l 1
 549.21875 0 l 1
 549.21875 627 l 1
 549.21875 643.701030928 550.068999761 664.610798172 550.068999761 687.283737987 c 0
 550.068999761 774.574556276 537.46617268 888 415.21875 888 c 0
 265.21875 888 260.21875 728 260.21875 627 c 2
 260.21875 0 l 1
 100.21875 0 l 1
 100.21875 1046 l 1
 260.21875 1046 l 1
 260.21875 909 l 1
 298.21875 986 361.21875 1040 470.21875 1040 c 0
 640.21875 1040 679.21875 921 685.21875 907 c 1
 703.21875 907 l 1
 741.21875 986 804.21875 1040 915.21875 1040 c 0
EndSplineSet
Validated: 524289
EndChar

StartChar: n
Encoding: 110 110 79
AltUni2: 0000f1.ffffffff.0
Width: 1175
Flags: W
HStem: 0 21G<100 260 915 1075> 876 166<433.674 746.535>
VStem: 100 160<0 687.329 854 1046> 915 160<0 687.119>
LayerCount: 2
Fore
SplineSet
610 1042 m 2
 924 1042 1075 806 1075 496 c 2
 1075 0 l 1
 915 0 l 1
 915 476 l 2
 915 709 776 876 610 876 c 0
 381 876 260 707 260 474 c 2
 260 0 l 1
 100 0 l 1
 100 1046 l 1
 260 1046 l 1
 260 854 l 1
 282 854 l 1
 335 971 436 1042 610 1042 c 2
EndSplineSet
Validated: 1
EndChar

StartChar: o
Encoding: 111 111 80
AltUni2: 0000f8.ffffffff.0 0000f5.ffffffff.0 0000f4.ffffffff.0 0000f3.ffffffff.0 0000f2.ffffffff.0
Width: 1186
VWidth: 1000
Flags: W
HStem: 0 162<421.139 756.448> 878 168<413.806 773.688>
VStem: 100 166<335.442 731.436> 920 166<339.302 731.436>
LayerCount: 2
Fore
SplineSet
1086 536 m 0
 1086 236 902 0 594 0 c 0
 288 0 100 236 100 536 c 0
 100 970 450 1046 594 1046 c 0
 740 1046 1086 970 1086 536 c 0
594 162 m 0
 796 162 920 324 920 540 c 0
 920 752 800 878 594 878 c 0
 386 878 266 752 266 540 c 0
 266 324 372 162 594 162 c 0
EndSplineSet
Validated: 1
EndChar

StartChar: p
Encoding: 112 112 81
Width: 1175
Flags: W
HStem: -409 21G<100 260> -20 152<433.233 746.094> 896 154<425.432 760.005> 1002 20G<100 260>
VStem: 100 160<-409 170 319.218 725.612 854 1022> 915 160<326.192 729.743>
LayerCount: 2
Fore
SplineSet
604 1050 m 0xec
 752 1050 1075 973 1075 528 c 0
 1075 220 924 -20 610 -20 c 0
 436 -20 335 53 282 170 c 1
 260 170 l 1
 260 -409 l 1
 100 -409 l 1
 100 1022 l 1
 260 1022 l 1xdc
 260 854 l 1
 286 854 l 1
 365 1014 503 1050 604 1050 c 0xec
610 132 m 0
 774 132 915 299 915 532 c 0
 915 761 780 896 604 896 c 0xec
 396 896 260 761 260 532 c 0
 260 299 379 132 610 132 c 0
EndSplineSet
Validated: 1
EndChar

StartChar: q
Encoding: 113 113 82
Width: 1416
Flags: W
HStem: -434.868 142.299<1109.35 1294.2> -34 153<428.906 743.761> 884 152<414.995 744.834>
VStem: 100 160<312.318 716.016> 915 160<-257.63 156 305.491 712.116 840 1008>
LayerCount: 2
Fore
SplineSet
1138 -273 m 0
 1157.50880692 -286.005871277 1179.00902359 -292.568946278 1200.73656204 -292.568946278 c 0
 1242.49161876 -292.568946278 1285.08620921 -268.330517217 1316 -219 c 1
 1316 -395 l 1
 1279.07770628 -423.625149066 1232.00112766 -434.867539244 1184.90901248 -434.867539244 c 0
 1118.48710054 -434.867539244 1052.03427987 -412.501710057 1014 -385 c 0
 931 -326 915 -241 915 -95 c 2
 915 156 l 1
 889 156 l 1
 836 39 739 -34 565 -34 c 0
 251 -34 100 206 100 514 c 0
 100 959 423 1036 571 1036 c 0
 672 1036 806 1000 885 840 c 1
 915 840 l 1
 915 1008 l 1
 1075 1008 l 1
 1075 -95 l 2
 1075 -101.933333333 1074.95448889 -108.923555556 1074.95448889 -115.931830519 c 0
 1074.95448889 -174.626133333 1078.14666667 -234.586666667 1138 -273 c 0
565 119 m 0
 796 119 915 285 915 518 c 0
 915 747 779 884 571 884 c 0
 395 884 260 747 260 518 c 0
 260 285 401 119 565 119 c 0
EndSplineSet
Validated: 524289
EndChar

StartChar: r
Encoding: 114 114 83
Width: 1181
Flags: W
HStem: 0 166<168 290 450 573> 860 160<100 290> 886 160<616.098 923>
VStem: 290 160<166 714.116 850 860> 923 158<696 886>
LayerCount: 2
Fore
SplineSet
794 1046 m 2xb8
 1081 1046 l 1
 1081 696 l 1
 923 696 l 1
 923 886 l 1
 794 886 l 2xb8
 586 886 450 749 450 520 c 1
 450 166 l 1
 573 166 l 1
 573 0 l 1
 168 0 l 1
 168 166 l 1
 290 166 l 1
 290 860 l 1
 100 860 l 1
 100 1020 l 1
 450 1020 l 1xd8
 450 850 l 1
 476 850 l 1
 555 1010 693 1046 794 1046 c 2xb8
EndSplineSet
Validated: 1
EndChar

StartChar: s
Encoding: 115 115 84
AltUni2: 0000df.ffffffff.0
Width: 1001
Flags: W
HStem: -34 159.691<340.067 662.826> 445 160<334.14 692.387> 887.696 159.079<324.655 688.176>
VStem: 119.027 159.01<660.142 840.18> 743.343 157.657<207.346 397.229>
LayerCount: 2
Fore
SplineSet
894.90625 372 m 0
 898.891541135 354.564351285 901.000086179 335.236446181 901.000086179 314.750314706 c 0
 901.000086179 170.74251462 796.807935172 -30.4981613919 507.90625 -34 c 0
 365.90625 -34 220.90625 29 99.90625 150 c 1
 173.90625 302 l 1
 288.228008675 178.03664722 401.601192483 125.690696838 505.533297147 125.690696838 c 0
 552.51497805 125.690696838 597.567449878 136.387173473 639.90625 156 c 0
 699.019825502 184.233349494 743.343050956 252.167112273 743.343050956 312.411325477 c 0
 743.343050956 320.448589926 742.554159597 328.348991159 740.90625 336 c 0
 724.90625 403 642.90625 445 515.90625 445 c 0
 262.90625 445 147.90625 573 123.90625 696 c 0
 120.619582905 713.191797114 119.026748861 730.399573786 119.026748861 747.4516317 c 0
 119.026748861 865.294131979 195.098047114 975.699744464 313.90625 1022 c 0
 359.435944824 1039.73031385 409.996614052 1046.77579635 461.58182753 1046.77579635 c 0
 645.66093038 1046.77579635 842.786389489 957.059930256 870.90625 943 c 1
 801.90625 797 l 1
 740.721984895 827.19483213 583.566363227 887.696408437 459.878869445 887.696408437 c 0
 427.906456144 887.696408437 398.170346001 883.653760261 372.90625 874 c 0
 308.988872925 847.732584764 278.037068558 790.799520497 278.037068558 744.147430142 c 0
 278.037068558 737.518194639 278.662055079 731.096555114 279.90625 725 c 0
 293.90625 650 385.90625 605 515.90625 605 c 0
 819.90625 605 882.90625 425 894.90625 372 c 0
EndSplineSet
Validated: 524289
EndChar

StartChar: t
Encoding: 116 116 85
Width: 1110
Flags: W
HStem: -31.5313 149.496<649.284 950.789> 886 160<100 452 612 964> 1380 20G<452 612>
VStem: 452 160<159.235 886 1046 1400>
LayerCount: 2
Fore
SplineSet
676 140 m 0
 699.392666186 124.506156162 730.445814241 117.964923665 765.06570799 117.964923665 c 0
 844.401692437 117.964923665 942.468683378 152.316648995 1010 192 c 1
 1010 4 l 1
 910.841395133 -18.8453648467 822.551007546 -31.5313091936 746.621783146 -31.5313091936 c 0
 666.341046763 -31.5313091936 599.878912344 -17.3496328585 549 14 c 0
 453.844660194 72.6310679612 451.996983693 155.281930436 451.996983693 291.255301644 c 0
 451.996983693 296.749175229 452 302.330097087 452 308 c 2
 452 886 l 1
 100 886 l 1
 100 1046 l 1
 452 1046 l 1
 452 1400 l 1
 612 1400 l 1
 612 1046 l 1
 964 1046 l 1
 964 886 l 1
 612 886 l 1
 612 318 l 2
 612 312.657534247 611.979733533 307.294802027 611.979733533 301.926239727 c 0
 611.979733533 241.977294051 614.506849315 181.301369863 676 140 c 0
EndSplineSet
Validated: 524289
EndChar

StartChar: u
Encoding: 117 117 86
AltUni2: 0000fc.ffffffff.0 0000fb.ffffffff.0 0000fa.ffffffff.0 0000f9.ffffffff.0
Width: 1175
Flags: W
HStem: -2 152<428.906 741.406> 1026 20G<100 260 915 1075>
VStem: 100 160<345.527 1046> 915 160<0 188 337.218 1046>
LayerCount: 2
Fore
SplineSet
915 1046 m 1
 1075 1046 l 1
 1075 0 l 1
 915 0 l 1
 915 188 l 1
 891 188 l 1
 838 71 739 -2 565 -2 c 0
 251 -2 100 238 100 546 c 2
 100 1046 l 1
 260 1046 l 1
 260 550 l 2
 260 317 401 150 565 150 c 0
 796 150 915 317 915 550 c 1
 915 1046 l 1
EndSplineSet
Validated: 1
EndChar

StartChar: v
Encoding: 118 118 87
Width: 1307
Flags: W
HStem: 0 21G<523.74 784.241> 1026 20G<100 274.321 1033.72 1207>
LayerCount: 2
Fore
SplineSet
1042 1046 m 1
 1207 1046 l 1
 776 0 l 1
 532 0 l 1
 100 1046 l 1
 266 1046 l 1
 655 111 l 1
 1042 1046 l 1
EndSplineSet
Validated: 1
EndChar

StartChar: w
Encoding: 119 119 88
Width: 1358
Flags: W
HStem: 0 111<320 372 992 1044> 1026 20G<154 320 1044 1210.04>
VStem: 154 166<111 1046> 1044 168<111 1046>
LayerCount: 2
Fore
SplineSet
1044 1046 m 1
 1210 1046 l 1
 1212 0 l 1
 878 0 l 1
 690 554 l 1
 674 554 l 1
 486 0 l 1
 154 0 l 1
 154 1046 l 1
 320 1046 l 1
 320 111 l 1
 372 111 l 1
 559 666 l 1
 807 666 l 1
 992 111 l 1
 1044 111 l 1
 1044 1046 l 1
EndSplineSet
Validated: 1
EndChar

StartChar: x
Encoding: 120 120 89
Width: 1204
VWidth: 1000
Flags: W
HStem: 0 21G<106 306.078 893.922 1096> 1002 20G<100 299.962 900.038 1104>
LayerCount: 2
Fore
SplineSet
752 530 m 1
 752 484 l 1
 1096 0 l 1
 908 0 l 1
 618 412 l 1
 582 412 l 1
 292 0 l 1
 106 0 l 1
 440 484 l 1
 440 530 l 1
 100 1022 l 1
 286 1022 l 1
 582 598 l 1
 618 598 l 1
 914 1022 l 1
 1104 1022 l 1
 752 530 l 1
EndSplineSet
Validated: 1
EndChar

StartChar: y
Encoding: 121 121 90
AltUni2: 0000ff.ffffffff.0 0000fd.ffffffff.0
Width: 1175
Flags: W
HStem: -456.079 175.716<373.654 779.718> 4 152<428.906 743.761> 1026 20G<100 260 915 1075>
VStem: 100 160<350.779 1046> 915 160<-127.722 194 342.491 1046>
LayerCount: 2
Fore
SplineSet
915 1046 m 1
 1075 1046 l 1
 1075 6 l 2
 1075 -221 960 -338 867 -397 c 0
 811.758993838 -431.860829131 701.003540413 -456.078992207 581.785078258 -456.078992207 c 0
 478.713932472 -456.078992207 369.317037536 -437.976916527 284 -393 c 1
 282 -198 l 1
 386.762599485 -247.916297402 503.297907267 -280.36341475 606.096623889 -280.36341475 c 0
 670.111082119 -280.36341475 728.79882198 -267.78120611 776 -239 c 0
 857 -188 915 -74 915 45 c 2
 915 194 l 1
 889 194 l 1
 836 77 739 4 565 4 c 0
 251 4 100 244 100 552 c 2
 100 1046 l 1
 260 1046 l 1
 260 555 l 2
 260 322 401 156 565 156 c 0
 796 156 915 322 915 555 c 1
 915 1046 l 1
EndSplineSet
Validated: 524289
EndChar

StartChar: z
Encoding: 122 122 91
Width: 1202
Flags: W
HStem: 0 166<306 972> 880 166<231 897>
VStem: 100 131<642 880> 972 130<166 405>
LayerCount: 2
Fore
SplineSet
972 166 m 1
 972 405 l 1
 1102 405 l 1
 1102 0 l 1
 100 0 l 1
 100 259 l 1
 897 852 l 1
 897 880 l 1
 231 880 l 1
 231 642 l 1
 100 642 l 1
 100 1046 l 1
 1102 1046 l 1
 1102 820 l 1
 306 225 l 1
 306 166 l 1
 972 166 l 1
EndSplineSet
Validated: 1
EndChar

StartChar: braceleft
Encoding: 123 123 92
Width: 1071
Flags: W
HStem: -358.566 139.647<572.528 868.503> 654 97<132 293.956> 1626.14 139.907<572.283 868.768>
VStem: 372 160<-174.916 577.034 830.349 1587.1>
LayerCount: 2
Fore
SplineSet
532 967 m 2
 532 823 516 763 435 704 c 1
 516 645 532 587 532 443 c 2
 532 -18 l 2
 532 -24.9333333333 531.954488889 -31.9008 531.954488889 -38.8708456296 c 0
 531.954488889 -97.2449777778 535.146666667 -155.8 595 -196 c 0
 618.457717229 -212.14622095 649.61858057 -218.91873398 684.354606829 -218.91873398 c 0
 763.639650729 -218.91873398 861.550630795 -183.635196337 929 -144 c 1
 929 -320 l 1
 832.596917118 -344.654811427 746.860732605 -358.565984208 673.279549747 -358.565984208 c 0
 481.244210092 -358.565984208 372 -263.813079943 372 -18 c 2
 372 443 l 2
 372 508 349 654 132 654 c 1
 132 751 l 1
 349 751 372 902 372 967 c 2
 372 1425 l 1
 369.645163329 1447.10929985 368.492654486 1468.00343564 368.492654486 1487.72187071 c 0
 368.492654486 1686.81383998 485.984266271 1766.04992026 669.688582377 1766.04992026 c 0
 745.940306607 1766.04992026 833.599832003 1752.39831883 929 1728 c 1
 929 1552 l 1
 861.834248045 1591.46853465 764.462522146 1626.14247027 685.355746081 1626.14247027 c 0
 650.217433615 1626.14247027 618.682856696 1619.30118708 595 1603 c 0
 535.146666667 1562.8 531.954488889 1504.24497778 531.954488889 1445.87084563 c 0
 531.954488889 1438.9008 532 1431.93333333 532 1425 c 2
 532 967 l 2
EndSplineSet
Validated: 524289
EndChar

StartChar: braceright
Encoding: 125 125 93
Width: 1075
Flags: W
HStem: -358.235 139.316<204.392 500.81> 654 97<780.225 943> 1626.14 140.236<202.005 498.844>
VStem: 542.001 157.999<-172.878 577.034 831.755 1582.2>
LayerCount: 2
Fore
SplineSet
700 967 m 2
 700 902 726 751 943 751 c 1
 943 654 l 1
 726 654 700 508 700 443 c 2
 700 -18 l 1
 702.36303432 -40.1862666709 703.519663752 -61.144585509 703.519663752 -80.915399073 c 0
 703.519663752 -279.444503859 586.894161753 -358.234827198 404.041260041 -358.234827198 c 0
 327.685806718 -358.234827198 239.782158352 -344.496011762 144 -320 c 1
 144 -144 l 1
 211.449369205 -183.635196337 308.393314006 -218.91873398 387.089151677 -218.91873398 c 0
 421.567037408 -218.91873398 452.542282771 -212.14622095 476 -196 c 0
 541.057971014 -152.304347826 542.00084016 -86.922705314 542.00084016 -23.6591021859 c 0
 542.00084016 -21.7706364209 542 -19.884057971 542 -18 c 2
 542 443 l 2
 542 587 559 645 640 704 c 1
 559 763 542 823 542 967 c 2
 542 1425 l 2
 542 1426.88405797 542.00084016 1428.77063642 542.00084016 1430.65910219 c 0
 542.00084016 1493.92270531 541.057971014 1559.30434783 476 1603 c 0
 452.317143304 1619.30118708 420.971764463 1626.14247027 386.09546501 1626.14247027 c 0
 307.578558046 1626.14247027 211.165751955 1591.46853465 144 1552 c 1
 144 1728 l 1
 240.019372783 1752.55667867 325.380461835 1766.37894301 398.654873952 1766.37894301 c 0
 590.946614559 1766.37894301 700 1671.18796912 700 1425 c 2
 700 967 l 2
EndSplineSet
Validated: 524289
EndChar

StartChar: asciitilde
Encoding: 126 126 94
Width: 1433
Flags: W
HStem: 611 159.186<880.89 1081.19> 961.44 160.881<359.34 563.829> 1026 20G<1141 1303>
VStem: 142 160<686 899.392> 1141 162<841.863 1046>
LayerCount: 2
Fore
SplineSet
1141 1046 m 1xb8
 1303 1046 l 1xb8
 1303 854 1223 611 992 611 c 0
 794 611 690 773 585 896 c 0
 552.505501875 933.591674302 506.208488607 961.440396738 457.489730269 961.440396738 c 0
 429.744569526 961.440396738 401.213973345 952.408325698 374 931 c 0
 309 880 302 763 302 686 c 1
 142 686 l 1
 142 814 166 961 267 1052 c 0
 320.751427698 1099.94046254 387.634589415 1122.32094279 454.931477013 1122.32094279 c 0xd8
 526.60679617 1122.32094279 598.751427698 1096.93351423 656 1050 c 0
 757 969 830 805 955 775 c 0
 968.452426995 771.723126758 980.96789057 770.186328439 992.607950833 770.186328439 c 0
 1115.95092385 770.186328439 1141 942.744386221 1141 1046 c 1xb8
EndSplineSet
Validated: 524289
EndChar

StartChar: multiply
Encoding: 215 215 97
Width: 1065
Flags: W
LayerCount: 2
Fore
SplineSet
925 874 m 1
 650 599 l 1
 925 322 l 1
 811 204 l 1
 534 480 l 1
 259 204 l 1
 140 322 l 1
 415 599 l 1
 140 874 l 1
 259 992 l 1
 534 716 l 1
 811 992 l 1
 925 874 l 1
EndSplineSet
Validated: 1
EndChar

StartChar: odieresis
Encoding: 246 246 98
Width: 1213
Flags: W
HStem: -32 166<432.146 775.301> 866 172<424.598 792.947> 1180 293<240.375 444.625 768.875 974.625>
VStem: 103 172<310.674 712.619> 198 290<1223.38 1429.12> 725 293<1223.38 1429.12> 943 170<320.905 712.619>
LayerCount: 2
Fore
SplineSet
609 1038 m 0xf2
 759 1038 1113 961 1113 516 c 0
 1113 208 925 -32 609 -32 c 0
 295 -32 103 208 103 516 c 0
 103 961 461 1038 609 1038 c 0xf2
609 134 m 0
 815 134 943 299 943 520 c 0
 943 737 819 866 609 866 c 0
 396 866 275 737 275 520 c 0
 275 299 382 134 609 134 c 0
872 1180 m 0
 793 1180 725 1247 725 1326 c 0
 725 1405 793 1473 872 1473 c 0
 951 1473 1018 1405 1018 1326 c 0xe4
 1018 1247 951 1180 872 1180 c 0
342 1180 m 0
 263 1180 198 1247 198 1326 c 0
 198 1405 263 1473 342 1473 c 0
 421 1473 488 1405 488 1326 c 0xe8
 488 1247 421 1180 342 1180 c 0
EndSplineSet
Validated: 1
EndChar

StartChar: divide
Encoding: 247 247 99
Width: 1249
Flags: W
HStem: 176 291<523.875 728.625> 585 166<152 1097> 864 290<523.875 728.625>
VStem: 480 291<219.375 424.125 907.375 1111.62>
LayerCount: 2
Fore
SplineSet
1097 585 m 1
 152 585 l 1
 152 751 l 1
 1097 751 l 1
 1097 585 l 1
627 864 m 0
 548 864 480 931 480 1010 c 0
 480 1089 548 1154 627 1154 c 0
 706 1154 771 1089 771 1010 c 0
 771 931 706 864 627 864 c 0
627 467 m 0
 706 467 771 401 771 322 c 0
 771 243 706 176 627 176 c 0
 548 176 480 243 480 322 c 0
 480 401 548 467 627 467 c 0
EndSplineSet
Validated: 1
EndChar

StartChar: endash
Encoding: 8211 8211 100
Width: 1273
Flags: W
HStem: 409 166<103 1172>
LayerCount: 2
Fore
SplineSet
1172 575 m 1
 1172 409 l 1
 103 409 l 1
 103 575 l 1
 1172 575 l 1
EndSplineSet
Validated: 1
EndChar

StartChar: emdash
Encoding: 8212 8212 101
Width: 1397
Flags: W
HStem: 409 166<103 1297>
LayerCount: 2
Fore
SplineSet
1297 575 m 1
 1297 409 l 1
 103 409 l 1
 103 575 l 1
 1297 575 l 1
EndSplineSet
Validated: 1
EndChar

StartChar: quotedblleft
Encoding: 8220 8220 102
Width: 875
Flags: W
HStem: 1457 289<214.644 349.625 596.483 730.625> 1884.35 96.1641<228.698 378.259 608.65 757.26>
VStem: 103 290<1499.38 1703.12 1835 1835> 103 109.998<1742 1867.29> 482 291<1499.38 1705.57 1835 1835> 482 110.998<1742 1867.29>
LayerCount: 2
Fore
SplineSet
629 1746 m 0xc4
 708 1746 773 1680 773 1601 c 0
 773 1522 708 1457 629 1457 c 0
 550 1457 482 1520 482 1599 c 1xc8
 482 1746 l 2
 482 1849 493 1907 550 1949 c 0
 575.544877819 1968.30057435 604.956663981 1980.51181674 645.552373384 1980.51181674 c 0
 676.470293292 1980.51181674 713.875370717 1973.42876984 761 1957 c 1
 761 1835 l 1
 739.282268466 1868.85411092 711.852393264 1884.34776005 684.443999726 1884.34776005 c 0
 668.943428355 1884.34776005 653.449727608 1879.39232294 639 1870 c 0
 593.918367347 1839.30612245 592.998334027 1805.85214494 592.998334027 1749.34100587 c 0
 592.998334027 1746.93627655 593 1744.48979592 593 1742 c 1
 593 1742 617 1746 629 1746 c 0xc4
247 1746 m 0
 326 1746 393 1680 393 1601 c 0
 393 1522 326 1457 247 1457 c 0
 168 1457 103 1520 103 1599 c 1xe0
 103 1746 l 2
 103 1849 115 1907 172 1949 c 0
 197.544877819 1968.30057435 226.634421619 1980.51181674 266.951497044 1980.51181674 c 0
 297.657207751 1980.51181674 334.875370717 1973.42876984 382 1957 c 1
 382 1835 l 1
 360.282268466 1868.85411092 332.444383002 1884.34776005 304.741207607 1884.34776005 c 0
 289.073924997 1884.34776005 273.449727608 1879.39232294 259 1870 c 0
 213.918367347 1839.30612245 212.998334027 1805.85214494 212.998334027 1749.34100587 c 0xd0
 212.998334027 1746.93627655 213 1744.48979592 213 1742 c 1
 213 1742 235 1746 247 1746 c 0
EndSplineSet
Validated: 1
EndChar

StartChar: quotedblright
Encoding: 8221 8221 103
Width: 875
Flags: W
HStem: 1227.49 98.4571<119.278 265.79 496.291 647.763> 1463 290<145.375 282.811 525.875 661.356>
VStem: 103 290<1362 1376 1502.95 1709.62> 283 110<1343.01 1467> 482 291<1362 1376 1505.38 1709.62> 662.012 110.988<1342.28 1467>
LayerCount: 2
Fore
SplineSet
391 1609 m 1xe0
 393 1609 l 1xe0
 393 1465 l 2
 393 1362 381 1301 324 1259 c 0
 298.455122181 1239.69942565 269.687820743 1227.48818326 229.649379297 1227.48818326 c 0
 199.15587779 1227.48818326 162.124629283 1234.57123016 115 1251 c 1
 115 1376 l 1
 136.922978964 1341.82594456 163.835061803 1325.94526999 190.910835901 1325.94526999 c 0
 205.826449965 1325.94526999 220.791739957 1330.76463097 235 1340 c 0
 282 1372 283 1406 283 1467 c 1xd0
 283 1467 259 1463 247 1463 c 0
 168 1463 103 1528 103 1607 c 0
 103 1686 168 1753 247 1753 c 0
 326 1753 391 1688 391 1609 c 1xe0
773 1607 m 2xc8
 773 1465 l 2
 773 1362 761 1301 704 1259 c 0
 678.455122181 1239.69942565 648.721093657 1227.48818326 607.846750275 1227.48818326 c 0
 576.716621166 1227.48818326 539.124629283 1234.57123016 492 1251 c 1
 492 1376 l 1
 513.922978964 1341.82594456 542.913855084 1325.94526999 571.466430958 1325.94526999 c 0
 587.195591673 1325.94526999 602.791739957 1330.76463097 617 1340 c 0
 660.31372549 1369.49019608 662.01230296 1400.67896963 662.01230296 1453.13326699 c 0xc4
 662.01230296 1457.59746251 662 1462.21568627 662 1467 c 1
 662 1467 641 1463 629 1463 c 0
 550 1463 482 1528 482 1607 c 0
 482 1686 550 1753 629 1753 c 0
 708 1753 773 1688 773 1609 c 1
 773 1607 l 2xc8
EndSplineSet
Validated: 1
EndChar

StartChar: trademark
Encoding: 8482 8482 104
Width: 1140
Flags: W
HStem: 1058 93<213 265 354 401> 1483 187<103 192 423 514> 1579 91<192 265 354 423>
VStem: 103 89<1483 1579> 213 188<1058 1151> 423 91<1483 1579> 581 91<1058 1315 1663 1670> 951 89<1058 1315 1622.52 1670>
LayerCount: 2
Fore
SplineSet
103 1483 m 1xdf
 103 1670 l 1
 514 1670 l 1
 514 1483 l 1
 423 1483 l 1xdf
 423 1579 l 1
 354 1579 l 1
 354 1151 l 1
 401 1151 l 1
 401 1058 l 1
 213 1058 l 1
 213 1151 l 1
 265 1151 l 1
 265 1579 l 1
 192 1579 l 1xbf
 192 1483 l 1
 103 1483 l 1xdf
953 1670 m 1xbf
 1040 1670 l 1
 1040 1058 l 1
 951 1058 l 1
 951 1315 l 1
 882 1058 l 1
 739 1058 l 1
 672 1315 l 1
 672 1058 l 1
 581 1058 l 1
 581 1670 l 1
 670 1670 l 1
 672 1663 l 1
 812 1135 l 1
 953 1670 l 1xbf
EndSplineSet
Validated: 1
EndChar

StartChar: a.alt1
Encoding: 61441 61441 105
Width: 1284
Flags: W
HStem: -28 153<415.663 750.123> 0 168<1075 1182> 888 152<431.485 748.452>
VStem: 103 160<291.394 694.669> 915 267<0 168> 915 160<168 172 293.428 704.254 854 1016>
LayerCount: 2
Fore
SplineSet
1075 1016 m 1xb4
 1075 168 l 1x74
 1182 168 l 1
 1182 0 l 1
 915 0 l 1x78
 915 172 l 1
 892 172 l 1
 815 8 672 -28 571 -28 c 0
 423 -28 103 49 103 494 c 0
 103 802 253 1040 567 1040 c 0
 739 1040 839 971 892 854 c 1
 915 854 l 1
 915 1016 l 1
 1075 1016 l 1xb4
571 125 m 0xb4
 777 125 913 259 915 484 c 2
 915 494 l 2
 913 725 796 888 567 888 c 0
 405 888 263 721 263 488 c 0
 263 259 395 125 571 125 c 0xb4
EndSplineSet
Validated: 1
EndChar

StartChar: asciicircum
Encoding: 94 94 106
Width: 985
Flags: W
HStem: 751 658
LayerCount: 2
Fore
SplineSet
719 751 m 1
 496 1301 l 1
 268 751 l 1
 100 751 l 1
 375 1409 l 1
 616 1409 l 1
 885 751 l 1
 719 751 l 1
EndSplineSet
Validated: 1
EndChar

StartChar: bar
Encoding: 124 124 107
Width: 470
Flags: W
VStem: 154 166<-223 1425>
LayerCount: 2
Fore
SplineSet
154 -223 m 1
 154 1425 l 1
 320 1425 l 1
 320 -223 l 1
 154 -223 l 1
EndSplineSet
Validated: 1
EndChar

StartChar: underscore
Encoding: 95 95 108
Width: 1230
Flags: W
HStem: -31.9131 166<75 1155>
LayerCount: 2
Fore
SplineSet
75 -31.9130859375 m 1
 75 134.086914062 l 1
 1155 134.086914062 l 1
 1155 -31.9130859375 l 1
 75 -31.9130859375 l 1
EndSplineSet
Validated: 524289
EndChar

StartChar: cent
Encoding: 162 162 109
Width: 1269
Flags: W
HStem: 200.814 153<482.647 794.206> 1118.81 152<474.657 807.861>
VStem: 138 153<555.363 935.37> 551 166<35.8145 1484.81> 978 163<847.814 955.066>
LayerCount: 2
Fore
SplineSet
551 35.814453125 m 5
 551 1484.81445312 l 1
 717 1484.81445312 l 1
 717 35.814453125 l 1
 551 35.814453125 l 5
638 353.814453125 m 0
 755 353.814453125 900 434.814453125 951 562.814453125 c 1
 1113 521.814453125 l 1
 1054 331.814453125 867 200.814453125 638 200.814453125 c 0
 324 200.814453125 138 438.814453125 138 748.814453125 c 0
 138 1193.81445312 490 1270.81445312 638 1270.81445312 c 0
 774 1270.81445312 1098 1205.81445312 1141 847.814453125 c 1
 978 847.814453125 l 1
 946 1019.81445312 788 1118.81445312 638 1118.81445312 c 0
 462 1118.81445312 291 981.814453125 291 752.814453125 c 0
 291 491.814453125 474 353.814453125 638 353.814453125 c 0
EndSplineSet
Validated: 524293
EndChar

StartChar: exclamdown
Encoding: 161 161 111
Width: 561
Flags: W
HStem: 0 21G<190 350> 1194 291<167.375 371.125>
VStem: 125 289<1236.88 1441.62> 190 160<0 619.746>
LayerCount: 2
Fore
SplineSet
240 1082 m 1xd0
 299 1082 l 1
 350 439 l 1
 350 0 l 1
 190 0 l 1
 190 439 l 1
 240 1082 l 1xd0
269 1194 m 0
 190 1194 125 1260 125 1339 c 0
 125 1418 190 1485 269 1485 c 0
 348 1485 414 1418 414 1339 c 0xe0
 414 1260 348 1194 269 1194 c 0
EndSplineSet
Validated: 1
EndChar
